<?xml version="1.0" encoding="iso-8859-1"?>
<!-- Generator: Adobe Illustrator 18.0.0, SVG Export Plug-In . SVG Version: 6.00 Build 0)  -->
<!DOCTYPE svg PUBLIC "-//W3C//DTD SVG 1.1//EN" "http://www.w3.org/Graphics/SVG/1.1/DTD/svg11.dtd">
<svg version="1.1" id="Capa_1" xmlns="http://www.w3.org/2000/svg" xmlns:xlink="http://www.w3.org/1999/xlink" x="0px" y="0px"
	 viewBox="0 0 372 372" style="enable-background:new 0 0 372 372;" xml:space="preserve">
<g>
	<path d="M186,0C83.439,0,0,83.439,0,186c0,23.153,4.265,45.326,12.03,65.79c0.163,0.593,0.385,1.175,0.663,1.742
		C39.779,322.803,107.25,372,186,372c102.561,0,186-83.439,186-186S288.561,0,186,0z M186,20c91.533,0,166,74.467,166,166
		c0,10.269-0.945,20.321-2.738,30.08l-97.625-66.618c-3.487-2.379-8.092-2.313-11.511,0.167L160.252,207.6l-51.511-24.416
		c-3.222-1.527-7.011-1.223-9.948,0.795l-71.886,49.418C22.421,218.372,20,202.464,20,186C20,94.467,94.467,20,186,20z
		 M51.38,240.843l53.997-37.12l36.427,17.266l-39.366,28.571C84.253,247.398,67.215,244.491,51.38,240.843z M325.572,275.772
		c-29.512-14.286-75.736-21.528-137.63-21.528c-19.34,0-37.799-0.624-55.349-1.857l113.584-82.438l97.88,66.793
		C339.588,250.635,333.34,263.736,325.572,275.772z M186,352c-65.849,0-122.864-38.541-149.677-94.248
		c42.321,10.949,93.215,16.492,151.619,16.492c56.597,0,98.735,6.036,125.544,17.949C283.011,328.717,237.176,352,186,352z"/>
</g>
<g>
</g>
<g>
</g>
<g>
</g>
<g>
</g>
<g>
</g>
<g>
</g>
<g>
</g>
<g>
</g>
<g>
</g>
<g>
</g>
<g>
</g>
<g>
</g>
<g>
</g>
<g>
</g>
<g>
</g>
</svg>
