<?xml version="1.0" encoding="UTF-8" standalone="no"?>
<svg
   xmlns:dc="http://purl.org/dc/elements/1.1/"
   xmlns:cc="http://creativecommons.org/ns#"
   xmlns:rdf="http://www.w3.org/1999/02/22-rdf-syntax-ns#"
   xmlns:svg="http://www.w3.org/2000/svg"
   xmlns="http://www.w3.org/2000/svg"
   xmlns:sodipodi="http://sodipodi.sourceforge.net/DTD/sodipodi-0.dtd"
   xmlns:inkscape="http://www.inkscape.org/namespaces/inkscape"
   height="511pt"
   viewBox="0 -41 511.99948 511"
   width="511pt"
   version="1.1"
   id="svg819"
   sodipodi:docname="mountains_1.svg"
   inkscape:version="0.92.4 (5da689c313, 2019-01-14)">
  <metadata
     id="metadata825">
    <rdf:RDF>
      <cc:Work
         rdf:about="">
        <dc:format>image/svg+xml</dc:format>
        <dc:type
           rdf:resource="http://purl.org/dc/dcmitype/StillImage" />
        <dc:title></dc:title>
      </cc:Work>
    </rdf:RDF>
  </metadata>
  <defs
     id="defs823" />
  <sodipodi:namedview
     pagecolor="#ffffff"
     bordercolor="#666666"
     borderopacity="1"
     objecttolerance="10"
     gridtolerance="10"
     guidetolerance="10"
     inkscape:pageopacity="0"
     inkscape:pageshadow="2"
     inkscape:window-width="1920"
     inkscape:window-height="1001"
     id="namedview821"
     showgrid="false"
     inkscape:zoom="1.18591"
     inkscape:cx="340.66667"
     inkscape:cy="340.66667"
     inkscape:window-x="-9"
     inkscape:window-y="-9"
     inkscape:window-maximized="1"
     inkscape:current-layer="svg819" />
  <path
     d="m 215.21094,2.5195312 c -29.2381,0.1359097 -55.75955,24.5645258 -58.1875,53.7148438 -3.60294,28.942247 17.28373,58.106995 45.7134,64.335855 27.71693,7.20907 58.64025,-8.45186 69.40964,-34.953042 C 283.50604,60.17666 273.74183,27.842156 250.37305,12.751953 240.10821,5.8017604 227.7095,2.1736655 215.21094,2.5195312 Z m 1.57422,25.9257808 c 18.79457,-0.53349 35.58776,16.888525 34.08789,35.6875 -0.49545,18.830366 -18.95747,34.42079 -37.59375,31.96875 -18.7183,-1.393995 -33.63424,-20.392234 -30.22461,-38.919921 2.28943,-16.241016 17.3475,-29.002154 33.73047,-28.736329 z"
     id="path815"
     inkscape:connector-curvature="0" />
  <path
     d="m 308.48242,103.06641 c -9.0458,-0.12644 -12.9301,9.36328 -15.7992,16.30555 -10.08638,20.69506 -20.17341,41.38981 -30.25939,62.08507 -3.87475,-6.90397 -12.40502,-12.93872 -20.23438,-8.50781 -8.26577,5.48522 -9.81928,16.52506 -15.00946,24.47885 -5.76102,11.49476 -11.52341,22.98882 -17.28351,34.48404 -11.85879,-25.87663 -22.94394,-52.17115 -35.2539,-77.80469 -5.4832,-8.16511 -19.34699,-6.27454 -22.55059,2.99691 -17.42869,36.23984 -34.85542,72.48064 -52.285349,108.71989 -5.345986,-8.82831 -19.891535,-8.40193 -23.690271,1.55019 -24.456401,48.12456 -49.543939,95.97668 -73.6183231,144.26621 -3.07212529,9.32072 6.3029516,18.33579 15.5058591,16.53516 160.232164,-0.0731 320.476784,0.14605 480.701174,-0.10937 10.00343,-0.88553 14.33328,-13.37482 8.80122,-21.07681 -31.84671,-67.71382 -63.13923,-135.73073 -95.32857,-203.25718 -5.41646,-8.14162 -17.8528,-6.27225 -22.41029,1.64297 -5.78393,6.94313 -11.56664,13.88727 -17.35142,20.82969 -17.71969,-39.13038 -34.94104,-78.52183 -52.9668,-117.49219 -2.40583,-3.56973 -6.66076,-5.76866 -10.9668,-5.64648 z m 1.52539,47.4707 c 16.24596,35.76754 31.88579,71.85553 48.49414,107.43164 5.34823,8.26157 17.93362,6.44468 22.49637,-1.52371 5.86053,-7.03511 11.72155,-14.06981 17.58176,-21.1052 26.01944,55.63156 52.04199,111.26165 78.05859,166.89454 -107.28581,-10e-6 -214.57161,0 -321.85742,0 0.93959,-7.76114 6.81664,-14.35428 9.6237,-21.67369 28.77174,-57.39662 57.54489,-114.79253 86.31575,-172.1896 3.81704,6.68779 11.89248,12.89562 19.76368,9.01368 8.58106,-4.60931 9.6625,-15.63978 14.61501,-23.22799 7.7194,-15.83941 15.43945,-31.6785 23.15842,-47.51811 0.58334,1.29948 1.16667,2.59896 1.75,3.89844 z m -144.43359,45.98828 c 9.77287,21.77275 19.54505,43.54581 29.31836,65.31836 -23.45738,46.79572 -46.9161,93.59078 -70.37305,140.38672 -29.442056,0 -58.884113,0 -88.326171,0 18.089349,-35.31534 36.177974,-70.63106 54.265625,-105.94727 4.909683,9.05758 19.468736,9.3311 23.683596,-0.4082 16.55681,-34.42505 33.11222,-68.85077 49.66992,-103.27539 0.58724,1.30859 1.17448,2.61719 1.76172,3.92578 z"
     id="path817"
     inkscape:connector-curvature="0" />
</svg>
