<svg height="511pt" viewBox="0 -41 511.99948 511" width="511pt" xmlns="http://www.w3.org/2000/svg"><path d="m216.785156 124.226562c34.230469 0 62.078125-27.75 62.078125-61.863281s-27.847656-61.863281-62.078125-61.863281c-34.226562 0-62.074218 27.75-62.074218 61.863281s27.847656 61.863281 62.074218 61.863281zm0-93.78125c17.71875 0 32.132813 14.320313 32.132813 31.917969 0 17.597657-14.414063 31.917969-32.132813 31.917969-17.714844 0-32.128906-14.320312-32.128906-31.917969 0-17.597656 14.414062-31.917969 32.128906-31.917969zm0 0"/><path d="m510.589844 408.859375-95.351563-203.855469c-2.167969-4.640625-6.5625-7.847656-11.644531-8.503906-5.066406-.652344-10.140625 1.328125-13.421875 5.265625l-17.242187 20.699219-50.53125-112.5625c-2.378907-5.300782-7.609376-8.746094-13.421876-8.839844-5.789062-.054688-11.148437 3.191406-13.695312 8.414062l-33.269531 68.261719-2.113281-2.644531c-3.1875-3.988281-8.183594-6.070312-13.261719-5.542969-5.078125.535157-9.53125 3.617188-11.820313 8.179688l-24.820312 49.519531-32.121094-71.558594c-2.386719-5.3125-7.636719-8.761718-13.464844-8.839844-.066406 0-.128906 0-.195312 0-5.75 0-11 3.292969-13.492188 8.484376l-51.464844 107.015624c-3.179687-3.53125-7.863281-5.351562-12.628906-4.878906-5.054687.511719-9.507812 3.550782-11.824218 8.074219l-73.160157 142.832031c-2.375 4.640625-2.167969 10.183594.554688 14.636719 2.71875 4.445313 7.558593 7.160156 12.773437 7.160156h482.054688c5.121094 0 9.886718-2.613281 12.632812-6.933593 2.75-4.320313 3.097656-9.742188.929688-14.382813zm-471.125-8.628906 51.433594-100.417969c3.21875 3.898438 8.195312 5.914062 13.230468 5.339844 5.117188-.578125 9.574219-3.746094 11.804688-8.386719l47.816406-99.421875 28.929688 64.453125-69.394532 138.433594zm117.316406 0 94.328125-188.171875 2.296875 2.871094c3.207031 4.011718 8.242188 6.101562 13.34375 5.535156s9.5625-3.707032 11.808594-8.324219l29.625-60.785156 47.246094 105.246093c2.117187 4.714844 6.511718 8.003907 11.625 8.703126 5.113281.691406 10.234374-1.28125 13.539062-5.25l17.507812-21.015626 75.394532 161.195313h-316.714844zm0 0"/></svg>