<?xml version="1.0" encoding="UTF-8" standalone="no"?>
<svg
   xmlns:dc="http://purl.org/dc/elements/1.1/"
   xmlns:cc="http://creativecommons.org/ns#"
   xmlns:rdf="http://www.w3.org/1999/02/22-rdf-syntax-ns#"
   xmlns:svg="http://www.w3.org/2000/svg"
   xmlns="http://www.w3.org/2000/svg"
   xmlns:sodipodi="http://sodipodi.sourceforge.net/DTD/sodipodi-0.dtd"
   xmlns:inkscape="http://www.inkscape.org/namespaces/inkscape"
   height="511pt"
   viewBox="0 -41 511.99948 511"
   width="511pt"
   version="1.1"
   id="svg4534"
   sodipodi:docname="mountains.svg"
   inkscape:version="0.92.4 (5da689c313, 2019-01-14)">
  <metadata
     id="metadata4540">
    <rdf:RDF>
      <cc:Work
         rdf:about="">
        <dc:format>image/svg+xml</dc:format>
        <dc:type
           rdf:resource="http://purl.org/dc/dcmitype/StillImage" />
      </cc:Work>
    </rdf:RDF>
  </metadata>
  <defs
     id="defs4538" />
  <sodipodi:namedview
     pagecolor="#ffffff"
     bordercolor="#666666"
     borderopacity="1"
     objecttolerance="10"
     gridtolerance="10"
     guidetolerance="10"
     inkscape:pageopacity="0"
     inkscape:pageshadow="2"
     inkscape:window-width="1306"
     inkscape:window-height="831"
     id="namedview4536"
     showgrid="false"
     inkscape:zoom="1.0076756"
     inkscape:cx="340.66667"
     inkscape:cy="340.66667"
     inkscape:window-x="194"
     inkscape:window-y="50"
     inkscape:window-maximized="0"
     inkscape:current-layer="svg4534" />
  <path
     d="M 215.2793,6.5195312 C 183.55917,6.3494993 156.13088,37.79901 161.02344,69.388672 c 3.35064,28.04739 30.35121,51.058918 58.58594,48.904298 27.55913,-1.24792 52.61033,-25.077646 53.2832,-53.119142 C 274.27789,38.930798 255.23861,12.962288 229.1604,7.8805137 224.61577,6.8462581 219.9382,6.389343 215.2793,6.5195312 Z m 0.94531,17.8886718 c 24.03514,-1.310716 44.64065,24.625897 37.51562,47.730469 -5.42115,21.629665 -31.93815,34.783658 -52.26953,25.083984 -19.34637,-8.189595 -29.24793,-33.904654 -18.52489,-52.385218 6.37963,-12.079029 19.55263,-20.3909 33.2788,-20.429235 z"
     id="path4530"
     inkscape:connector-curvature="0" />
  <path
     d="m 307.96289,107.07227 c -9.77514,2.1611 -10.45701,14.2153 -15.22266,21.3125 -10.08253,20.6853 -20.16081,41.37267 -30.24609,62.05664 -2.43781,-6.92675 -8.47266,-16.74287 -17.10742,-14.50196 -9.39116,5.9412 -10.60011,18.46526 -16.4961,27.20703 -6.54306,12.5754 -12.74197,25.34697 -19.14843,38 -13.69788,-28.57814 -24.939,-58.45098 -39.83203,-86.37109 -6.24207,-4.8951 -14.73598,0.69351 -15.94687,7.66764 -18.03934,37.51046 -36.07755,75.02146 -54.117587,112.53158 -0.90609,-7.95517 -10.395463,-14.88938 -17.552734,-9.5332 -8.781723,14.63804 -15.893004,30.5327 -24.060624,45.63469 -17.566445,34.3781 -35.665706,68.59795 -52.2831262,103.3907 -0.5804853,7.83709 8.5532692,11.39079 15.0527342,9.70781 159.628407,-0.23562 319.297297,0.4908 478.900387,-0.38359 7.53503,-2.56708 7.06958,-12.59739 2.70771,-17.81296 -31.82841,-67.06007 -62.14087,-134.9545 -94.97724,-201.45658 -6.18374,-5.19163 -14.34789,0.50239 -17.35043,6.48587 -6.29205,7.55289 -12.58408,15.10578 -18.87613,22.65867 -19.14758,-41.29671 -36.43132,-83.59197 -56.6582,-124.30274 -1.8275,-1.63922 -4.34099,-2.47147 -6.78516,-2.29101 z m 2.19336,34.02929 c 17.84512,38.5961 34.04436,78.12033 52.9043,116.13867 6.1427,5.27131 14.43741,-0.39502 17.42273,-6.42724 6.35121,-7.62392 12.70301,-15.24734 19.05383,-22.87158 27.79558,59.43098 55.59398,118.86065 83.38672,178.29297 -110.89193,0 -221.78386,-10e-6 -332.67578,0 0.65848,-13.955 10.67949,-24.74586 15.51127,-37.30049 28.30199,-56.4605 56.60591,-112.92005 84.9067,-169.38116 2.54757,6.94653 8.68989,16.85646 17.40234,14.48243 9.18078,-5.69721 9.84136,-17.9729 15.7207,-26.32227 8.20591,-16.83715 16.41023,-33.67508 24.61719,-50.51172 0.58333,1.30013 1.16667,2.60026 1.75,3.90039 z m -144.45703,45.93555 c 11.20584,24.96704 22.41235,49.93378 33.61914,74.90039 -24.10974,48.0978 -48.22077,96.19495 -72.33008,144.29297 -32.445962,0 -64.891926,0 -97.337889,0 20.381323,-39.78914 40.759605,-79.57984 61.140625,-119.36914 0.433563,8.06355 9.580454,15.6834 17.103514,10.64453 6.53941,-9.62504 10.79766,-20.95761 16.17146,-31.36687 13.10355,-27.76441 26.64265,-55.3216 39.87151,-83.02766 0.58724,1.30859 1.17448,2.61719 1.76172,3.92578 z"
     id="path4532"
     inkscape:connector-curvature="0" />
</svg>
