<?xml version="1.0" encoding="UTF-8" standalone="no"?>
<!DOCTYPE svg PUBLIC "-//W3C//DTD SVG 1.1//EN" "http://www.w3.org/Graphics/SVG/1.1/DTD/svg11.dtd">
<svg version="1.1" xmlns="http://www.w3.org/2000/svg" xmlns:xlink="http://www.w3.org/1999/xlink" preserveAspectRatio="xMidYMid meet" viewBox="0 0 310 309" width="310" height="309"><defs><path d="M90.76 84.2L90.73 83.84L90.7 83.48L90.66 83.13L90.64 82.79L90.61 82.46L90.58 82.13L90.56 81.82L90.53 81.51L90.5 81.22L90.48 80.92L90.45 80.65L90.43 80.37L90.41 80.11L90.39 79.86L90.36 79.62L90.34 79.37L90.32 79.15L90.3 78.93L90.29 78.72L90.26 78.52L90.25 78.32L90.24 78.14L90.21 77.96L90.2 77.79L90.19 77.63L90.18 77.48L90.16 77.34L90.15 77.2L90.14 77.08L90.13 76.97L90.12 76.85L90.11 76.76L90.11 76.67L90.1 76.58L90.09 76.51L90.09 76.45L90.08 76.39L90.08 76.35L89.99 75.12L89.91 73.9L89.87 72.68L89.85 71.47L89.86 70.25L89.89 69.05L89.95 67.85L90.03 66.65L90.14 65.45L90.26 64.27L90.41 63.08L90.59 61.9L90.8 60.73L91.02 59.57L91.27 58.4L91.55 57.25L91.84 56.1L92.16 54.97L92.51 53.83L92.88 52.71L93.27 51.6L93.69 50.49L94.13 49.39L94.59 48.3L95.07 47.22L95.59 46.15L96.11 45.08L96.66 44.02L97.24 42.98L97.84 41.95L98.46 40.93L99.11 39.92L99.77 38.92L100.46 37.93L101.17 36.96L101.91 35.99L102.66 35.04L103.44 34.1L104.24 33.17L105.05 32.26L105.89 31.37L106.75 30.49L107.61 29.64L108.5 28.8L109.39 27.99L110.31 27.19L111.23 26.42L112.17 25.67L113.12 24.94L114.09 24.24L115.06 23.55L116.05 22.89L117.05 22.24L118.06 21.62L119.09 21.02L120.12 20.44L121.17 19.89L122.22 19.36L123.29 18.85L124.37 18.36L125.45 17.89L126.55 17.45L127.66 17.04L128.77 16.64L129.9 16.27L131.03 15.92L132.17 15.59L133.32 15.29L134.48 15.01L135.64 14.75L136.82 14.52L137.99 14.31L139.19 14.13L140.38 13.97L141.57 13.83L142.78 13.72L143.99 13.64L145.21 13.57L146.43 13.54L147.66 13.52L147.77 13.52L147.92 13.52L148.09 13.52L148.29 13.52L148.53 13.52L148.78 13.52L149.07 13.52L149.37 13.52L149.69 13.52L150.03 13.52L150.39 13.52L150.76 13.52L151.14 13.52L151.54 13.52L151.95 13.52L152.37 13.52L152.79 13.52L153.22 13.52L153.65 13.52L154.08 13.52L154.52 13.52L154.94 13.52L155.37 13.52L155.8 13.52L156.22 13.52L156.62 13.52L157.02 13.52L157.41 13.52L157.78 13.52L158.14 13.52L158.48 13.52L158.8 13.52L159.1 13.52L159.38 13.52L159.64 13.52L159.87 13.52L160.07 13.52L160.24 13.52L160.39 13.52L160.51 13.52L161.73 13.54L162.96 13.57L164.17 13.64L165.39 13.72L166.59 13.83L167.79 13.97L168.98 14.13L170.17 14.31L171.35 14.52L172.52 14.75L173.69 15.01L174.84 15.29L175.99 15.59L177.14 15.92L178.27 16.27L179.39 16.64L180.51 17.04L181.62 17.45L182.71 17.89L183.8 18.36L184.87 18.85L185.94 19.36L187 19.89L188.04 20.44L189.08 21.02L190.1 21.62L191.12 22.24L192.12 22.89L193.1 23.55L194.08 24.24L195.05 24.94L196 25.67L196.93 26.42L197.86 27.19L198.77 27.99L199.67 28.8L200.55 29.64L201.42 30.49L202.27 31.37L203.11 32.26L203.93 33.17L204.73 34.1L205.51 35.04L206.26 35.99L207 36.96L207.7 37.93L208.4 38.92L209.06 39.92L209.7 40.93L210.32 41.95L210.92 42.98L211.5 44.02L212.05 45.08L212.59 46.15L213.1 47.22L213.58 48.3L214.04 49.39L214.48 50.49L214.9 51.6L215.29 52.71L215.66 53.83L216 54.97L216.32 56.1L216.62 57.25L216.9 58.4L217.15 59.57L217.37 60.73L217.57 61.9L217.75 63.08L217.91 64.27L218.04 65.45L218.14 66.65L218.22 67.85L218.28 69.05L218.31 70.25L218.32 71.47L218.3 72.68L218.25 73.9L218.19 75.12L218.09 76.35L218.08 76.49L218.07 76.66L218.05 76.85L218.03 77.08L218 77.32L217.98 77.6L217.95 77.9L217.92 78.23L217.9 78.59L217.86 78.97L217.83 79.37L217.79 79.8L217.75 80.27L217.71 80.75L217.67 81.26L217.62 81.8L217.57 82.36L217.52 82.95L217.46 83.57L217.41 84.21L217.35 84.88L217.29 85.57L217.22 86.3L217.16 87.05L217.1 87.82L217.02 88.62L216.95 89.45L216.87 90.3L216.8 91.17L216.72 92.08L216.64 93.01L216.56 93.97L216.47 94.95L216.38 95.96L216.3 97L216.2 98.06L216.1 99.15L216.01 100.26L215.91 101.4L215.81 102.57L203.07 100.77L103.88 86.8L103.88 86.8L90.83 84.96L90.79 84.57L90.76 84.2ZM195.4 112.67L195.51 112.68L195.64 112.7L195.8 112.72L195.97 112.75L196.17 112.77L196.4 112.81L196.63 112.84L196.89 112.87L197.16 112.92L197.44 112.95L197.73 113L198.04 113.04L198.35 113.08L198.67 113.12L199 113.17L199.32 113.22L199.65 113.27L199.97 113.31L200.3 113.36L200.62 113.4L200.95 113.45L201.26 113.49L201.56 113.53L201.85 113.57L202.14 113.62L202.4 113.65L202.66 113.69L202.9 113.72L203.12 113.75L203.32 113.78L203.5 113.81L203.65 113.83L203.78 113.85L203.89 113.86L203.97 113.87L204.02 113.88L204.03 113.88L203.53 114.21L202.9 114.64L202.12 115.15L201.22 115.75L200.21 116.43L199.08 117.18L197.85 118L196.52 118.88L195.1 119.83L193.61 120.83L192.03 121.87L190.39 122.96L188.69 124.1L186.94 125.26L185.15 126.45L183.32 127.68L181.45 128.92L179.57 130.17L177.67 131.43L175.77 132.7L173.86 133.98L171.96 135.24L170.07 136.5L168.21 137.73L166.38 138.95L164.58 140.15L162.83 141.32L161.14 142.45L159.49 143.54L157.92 144.59L156.42 145.58L155.01 146.53L153.68 147.41L152.44 148.23L151.32 148.98L150.3 149.66L149.41 150.26L148.64 150.78L147.99 151.2L147.5 151.53L147.28 151.67L147.06 151.8L146.84 151.94L146.62 152.06L146.39 152.19L146.17 152.3L145.94 152.42L145.7 152.53L145.47 152.63L145.24 152.73L145 152.83L144.77 152.91L144.52 153L144.29 153.08L144.04 153.15L143.8 153.23L143.56 153.29L143.32 153.35L143.07 153.4L142.82 153.45L142.57 153.5L142.32 153.54L142.07 153.58L141.82 153.61L141.57 153.63L141.32 153.65L141.07 153.67L140.82 153.68L140.57 153.69L140.31 153.69L140.06 153.68L139.8 153.68L139.55 153.66L139.29 153.64L139.04 153.62L138.79 153.58L138.54 153.55L138.28 153.51L138.03 153.46L137.77 153.41L137.52 153.36L137.27 153.3L137.02 153.23L136.77 153.16L136.53 153.09L136.29 153.01L136.04 152.93L135.8 152.84L135.57 152.75L135.33 152.65L135.1 152.55L134.87 152.45L134.64 152.33L134.42 152.22L134.19 152.1L133.97 151.98L133.76 151.85L133.54 151.72L133.33 151.58L133.12 151.44L132.92 151.3L132.71 151.15L132.51 151L132.31 150.84L132.12 150.68L131.92 150.51L131.74 150.35L131.55 150.18L131.37 150L131.19 149.82L131.02 149.63L130.84 149.45L130.67 149.25L130.51 149.06L130.34 148.86L130.19 148.66L130.03 148.45L129.88 148.25L129.74 148.03L129.59 147.82L129.42 147.55L129.21 147.23L128.97 146.87L128.7 146.45L128.4 145.98L128.07 145.47L127.71 144.91L127.31 144.3L126.88 143.64L126.42 142.93L125.93 142.17L125.41 141.37L124.86 140.51L124.27 139.6L123.65 138.65L123 137.65L122.32 136.6L121.61 135.5L120.87 134.35L120.09 133.15L119.28 131.9L118.44 130.61L117.57 129.27L116.67 127.87L115.74 126.43L114.76 124.94L113.77 123.4L112.74 121.81L111.68 120.17L110.59 118.48L109.46 116.75L108.31 114.97L107.12 113.13L105.9 111.25L104.65 109.32L103.36 107.34L102.05 105.31L100.71 103.23L99.33 101.1L97.92 98.93L101.78 99.47L105.56 100L109.27 100.53L112.91 101.04L116.47 101.55L119.97 102.04L123.39 102.52L126.73 102.99L130.01 103.45L133.21 103.9L136.33 104.35L139.39 104.77L142.37 105.2L145.27 105.6L148.11 106L150.87 106.39L153.56 106.77L156.18 107.14L158.72 107.5L161.19 107.85L163.59 108.18L165.91 108.51L168.16 108.83L170.34 109.14L172.44 109.43L174.47 109.72L176.44 110L178.32 110.26L180.13 110.52L181.87 110.76L183.54 111L185.14 111.22L186.66 111.44L188.1 111.64L189.48 111.83L190.78 112.02L192.01 112.19L193.17 112.35L194.25 112.5L195.26 112.65L195.26 112.65L195.27 112.65L195.32 112.66L195.4 112.67ZM201.8 260.25L201.43 261.93L201 263.57L200.52 265.19L199.97 266.78L199.37 268.35L198.71 269.88L198 271.38L197.23 272.85L196.42 274.29L195.55 275.69L194.64 277.04L193.68 278.37L192.67 279.66L191.62 280.91L190.52 282.11L189.38 283.28L188.2 284.4L186.98 285.48L185.72 286.51L184.42 287.5L183.09 288.44L181.72 289.34L180.32 290.18L178.88 290.96L177.41 291.71L175.91 292.39L174.38 293.03L172.83 293.61L171.24 294.13L169.64 294.59L168 295L166.34 295.35L164.67 295.64L162.97 295.86L161.25 296.02L159.51 296.12L157.76 296.15L157.69 296.15L157.61 296.15L157.51 296.15L157.39 296.15L157.26 296.15L157.12 296.15L156.95 296.15L156.78 296.15L156.59 296.15L156.4 296.15L156.19 296.15L155.99 296.15L155.77 296.15L155.54 296.15L155.3 296.15L155.07 296.15L154.82 296.15L154.58 296.15L154.33 296.15L154.08 296.15L153.84 296.15L153.59 296.15L153.34 296.15L153.1 296.15L152.86 296.15L152.63 296.15L152.4 296.15L152.18 296.15L151.97 296.15L151.76 296.15L151.57 296.15L151.38 296.15L151.21 296.15L151.05 296.15L150.9 296.15L150.77 296.15L150.65 296.15L150.55 296.15L150.47 296.15L150.41 296.15L148.65 296.12L146.92 296.02L145.19 295.86L143.49 295.64L141.82 295.35L140.17 295L138.53 294.59L136.92 294.13L135.34 293.61L133.78 293.03L132.25 292.39L130.75 291.71L129.29 290.96L127.85 290.18L126.44 289.34L125.07 288.44L123.74 287.5L122.44 286.51L121.19 285.48L119.97 284.4L118.78 283.28L117.64 282.11L116.54 280.91L115.49 279.66L114.49 278.37L113.53 277.04L112.61 275.69L111.75 274.29L110.94 272.85L110.17 271.38L109.46 269.88L108.8 268.35L108.2 266.78L107.65 265.19L107.16 263.57L106.73 261.93L106.36 260.25L106.05 258.56L105.8 256.83L105.61 255.08L105.55 254.32L105.47 253.41L105.38 252.37L105.28 251.18L105.16 249.86L105.04 248.4L104.89 246.8L104.74 245.06L104.58 243.17L104.41 241.15L104.21 238.99L104.01 236.69L103.81 234.26L103.58 231.68L103.34 228.96L103.09 226.11L102.84 223.11L102.56 219.97L102.28 216.7L101.98 213.28L101.67 209.73L101.35 206.04L101.02 202.21L100.67 198.23L100.31 194.13L99.94 189.88L99.56 185.48L99.17 180.95L98.76 176.29L98.35 171.48L97.91 166.53L97.47 161.45L97.02 156.23L96.56 150.86L96.08 145.35L95.59 139.71L95.08 133.93L94.56 128L94.04 121.95L93.5 115.75L94.63 117.48L95.73 119.18L96.81 120.84L97.86 122.46L98.88 124.05L99.88 125.59L100.86 127.1L101.81 128.56L102.73 129.98L103.63 131.37L104.5 132.72L105.35 134.03L106.17 135.3L106.97 136.53L107.74 137.72L108.49 138.88L109.21 139.98L109.91 141.06L110.58 142.1L111.22 143.09L111.84 144.05L112.44 144.97L113.01 145.85L113.56 146.68L114.07 147.49L114.56 148.25L115.04 148.97L115.48 149.65L115.89 150.3L116.29 150.9L116.66 151.47L117 152L117.32 152.49L117.61 152.94L117.87 153.35L118.12 153.72L118.33 154.05L118.52 154.34L118.68 154.6L118.82 154.81L119.11 155.25L119.4 155.67L119.7 156.09L120.01 156.5L120.32 156.9L120.64 157.3L120.98 157.69L121.32 158.07L121.66 158.45L122.01 158.81L122.37 159.18L122.73 159.53L123.1 159.87L123.47 160.2L123.86 160.53L124.24 160.85L124.64 161.17L125.04 161.47L125.45 161.77L125.87 162.05L126.28 162.33L126.71 162.6L127.14 162.87L127.57 163.13L128.01 163.37L128.45 163.61L128.91 163.84L129.36 164.06L129.82 164.27L130.29 164.48L130.75 164.67L131.23 164.85L131.71 165.03L132.19 165.19L132.67 165.35L133.17 165.5L133.66 165.63L134.16 165.76L134.66 165.88L135.17 166L135.3 166.02L135.43 166.05L135.57 166.08L135.69 166.1L135.82 166.12L135.96 166.15L136.09 166.17L136.22 166.19L136.35 166.21L136.49 166.23L136.62 166.25L136.75 166.27L136.88 166.29L137.02 166.3L137.14 166.33L137.28 166.34L137.41 166.35L137.54 166.38L137.67 166.39L137.8 166.4L137.94 166.41L138.07 166.43L138.2 166.44L138.33 166.45L138.47 166.46L138.59 166.47L138.73 166.48L138.86 166.49L138.99 166.5L139.12 166.5L139.25 166.51L139.39 166.52L139.52 166.52L139.65 166.53L139.78 166.53L139.91 166.53L140.04 166.53L140.17 166.53L140.3 166.54L140.44 166.54L140.81 166.53L141.19 166.53L141.56 166.51L141.93 166.5L142.31 166.47L142.68 166.44L143.05 166.4L143.42 166.36L143.79 166.32L144.16 166.26L144.53 166.2L144.89 166.14L145.27 166.08L145.63 166L145.99 165.92L146.36 165.84L146.72 165.75L147.08 165.65L147.44 165.55L147.8 165.45L148.16 165.33L148.52 165.22L148.87 165.1L149.22 164.97L149.57 164.83L149.92 164.7L150.27 164.55L150.62 164.4L150.96 164.25L151.3 164.1L151.64 163.93L151.99 163.76L152.32 163.58L152.66 163.4L152.99 163.22L153.32 163.03L153.65 162.83L153.98 162.63L154.3 162.43L154.62 162.22L154.95 162L155.34 161.74L155.78 161.45L156.29 161.11L156.85 160.73L157.48 160.32L158.16 159.86L158.9 159.37L159.71 158.83L160.57 158.26L161.49 157.65L162.47 156.99L163.51 156.3L164.61 155.57L165.77 154.8L166.99 153.98L168.27 153.13L169.6 152.24L171 151.31L172.46 150.34L173.97 149.33L175.54 148.28L177.18 147.2L178.87 146.07L180.63 144.9L182.44 143.69L184.32 142.45L186.24 141.15L188.24 139.83L190.29 138.47L192.4 137.06L194.57 135.61L196.8 134.13L199.09 132.6L201.44 131.04L203.85 129.44L206.31 127.8L208.84 126.11L211.42 124.39L214.07 122.63L213.61 127.88L213.16 133.03L212.72 138.08L212.3 143.03L211.87 147.88L211.46 152.63L211.05 157.28L210.66 161.84L210.27 166.29L209.89 170.65L209.52 174.9L209.16 179.05L208.81 183.11L208.46 187.07L208.12 190.93L207.8 194.68L207.48 198.35L207.17 201.91L206.87 205.36L206.58 208.73L206.3 211.99L206.02 215.15L205.75 218.21L205.5 221.18L205.25 224.04L205.01 226.81L204.77 229.47L204.55 232.04L204.34 234.51L204.13 236.87L203.93 239.14L203.75 241.31L203.57 243.38L203.4 245.35L203.23 247.22L203.07 248.99L202.93 250.66L202.8 252.24L202.67 253.71L202.55 255.08L202.55 255.08L202.36 256.83L202.12 258.56L201.8 260.25ZM160.07 0.68L159.87 0.68L159.64 0.68L159.38 0.68L159.1 0.68L158.8 0.68L158.48 0.68L158.14 0.68L157.78 0.68L157.41 0.68L157.02 0.68L156.62 0.68L156.22 0.68L155.8 0.68L155.37 0.68L154.94 0.68L154.52 0.68L154.08 0.68L153.65 0.68L153.22 0.68L152.79 0.68L152.37 0.68L151.95 0.68L151.54 0.68L151.14 0.68L150.76 0.68L150.39 0.68L150.03 0.68L149.69 0.68L149.37 0.68L149.07 0.68L148.78 0.68L148.53 0.68L148.29 0.68L148.09 0.68L147.92 0.68L147.77 0.68L147.66 0.68L146.18 0.69L144.7 0.74L143.23 0.82L141.76 0.93L140.29 1.07L138.84 1.24L137.39 1.44L135.94 1.67L134.5 1.92L133.07 2.21L131.64 2.53L130.22 2.87L128.81 3.25L127.41 3.66L126.02 4.09L124.64 4.55L123.27 5.04L121.91 5.56L120.56 6.1L119.22 6.67L117.89 7.27L116.58 7.89L115.27 8.55L113.99 9.23L112.71 9.94L111.46 10.67L110.21 11.43L108.98 12.22L107.76 13.02L106.57 13.86L105.39 14.72L104.23 15.61L103.08 16.52L101.95 17.46L100.84 18.42L99.75 19.4L98.68 20.41L97.63 21.44L96.59 22.5L95.59 23.58L94.59 24.68L93.63 25.8L92.69 26.94L91.78 28.09L90.89 29.27L90.04 30.46L89.2 31.67L88.39 32.89L87.61 34.12L86.85 35.37L86.12 36.64L85.41 37.92L84.74 39.21L84.09 40.52L83.47 41.84L82.88 43.17L82.31 44.51L81.77 45.86L81.26 47.22L80.78 48.6L80.32 49.98L79.9 51.37L79.5 52.77L79.13 54.18L78.79 55.6L78.48 57.02L78.2 58.45L77.94 59.9L77.72 61.34L77.53 62.78L77.36 64.24L77.24 65.7L77.13 67.15L77.06 68.62L77.01 70.09L77 71.56L77.02 73.03L77.07 74.5L77.15 75.98L77.26 77.45L77.4 79.02L77.57 81.05L77.79 83.48L78.04 86.32L78.31 89.53L78.62 93.1L78.96 97L79.33 101.2L79.71 105.67L80.13 110.41L80.56 115.38L81.01 120.57L81.48 125.94L81.96 131.48L82.46 137.15L82.96 142.95L83.47 148.84L83.99 154.8L84.51 160.8L85.04 166.83L85.56 172.85L86.09 178.86L86.6 184.82L87.11 190.71L87.62 196.51L88.11 202.18L88.59 207.72L89.06 213.09L89.51 218.27L89.94 223.25L90.36 227.98L90.75 232.46L91.11 236.66L91.45 240.56L91.76 244.12L92.04 247.33L92.29 250.18L92.5 252.61L92.67 254.63L92.81 256.21L93.05 258.45L93.37 260.66L93.76 262.84L94.24 264.99L94.8 267.11L95.43 269.19L96.14 271.24L96.91 273.25L97.75 275.22L98.67 277.15L99.65 279.04L100.7 280.88L101.81 282.68L102.99 284.43L104.22 286.14L105.51 287.79L106.87 289.39L108.28 290.94L109.74 292.44L111.26 293.89L112.84 295.27L114.45 296.6L116.12 297.87L117.84 299.09L119.6 300.23L121.4 301.31L123.25 302.33L125.14 303.29L127.07 304.16L129.03 304.99L131.03 305.73L133.07 306.4L135.14 306.99L137.24 307.52L139.37 307.96L141.52 308.34L143.71 308.62L145.92 308.83L148.15 308.96L150.41 309L150.47 309L150.55 309L150.65 309L150.77 309L150.9 309L151.05 309L151.21 309L151.38 309L151.57 309L151.76 309L151.97 309L152.18 309L152.4 309L152.63 309L152.86 309L153.1 309L153.34 309L153.59 309L153.84 309L154.08 309L154.33 309L154.58 309L154.82 309L155.07 309L155.3 309L155.54 309L155.77 309L155.99 309L156.19 309L156.4 309L156.59 309L156.78 309L156.95 309L157.12 309L157.26 309L157.39 309L157.51 309L157.61 309L157.69 309L157.76 309L160.02 308.96L162.24 308.83L164.46 308.62L166.64 308.34L168.8 307.96L170.93 307.52L173.03 306.99L175.1 306.4L177.14 305.73L179.14 304.99L181.1 304.16L183.03 303.29L184.92 302.33L186.77 301.31L188.57 300.23L190.33 299.09L192.04 297.87L193.72 296.6L195.34 295.27L196.9 293.89L198.42 292.44L199.89 290.94L201.3 289.39L202.65 287.79L203.95 286.14L205.18 284.43L206.36 282.68L207.47 280.88L208.52 279.04L209.5 277.15L210.42 275.22L211.26 273.25L212.03 271.24L212.74 269.19L213.37 267.11L213.92 264.99L214.4 262.84L214.8 260.66L215.12 258.45L215.36 256.21L215.5 254.63L215.67 252.61L215.88 250.18L216.13 247.33L216.41 244.12L216.72 240.56L217.05 236.66L217.42 232.46L217.81 227.98L218.22 223.25L218.65 218.27L219.11 213.09L219.57 207.72L220.05 202.18L220.55 196.51L221.05 190.71L221.57 184.82L222.08 178.86L222.6 172.85L223.13 166.83L223.65 160.8L224.17 154.8L224.7 148.84L225.2 142.95L225.71 137.15L226.2 131.48L226.69 125.94L227.15 120.57L227.6 115.38L228.04 110.41L228.45 105.67L228.84 101.2L229.2 97L229.54 93.1L229.85 89.53L230.13 86.32L230.37 83.48L230.59 81.05L230.77 79.02L230.9 77.45L231.01 75.98L231.1 74.5L231.15 73.03L231.16 71.56L231.15 70.09L231.11 68.62L231.03 67.15L230.93 65.7L230.8 64.24L230.63 62.78L230.44 61.34L230.22 59.9L229.97 58.45L229.68 57.02L229.37 55.6L229.03 54.18L228.67 52.77L228.27 51.37L227.84 49.98L227.39 48.6L226.9 47.22L226.39 45.86L225.85 44.51L225.29 43.17L224.7 41.84L224.07 40.52L223.42 39.21L222.75 37.92L222.05 36.64L221.32 35.37L220.56 34.12L219.77 32.89L218.97 31.67L218.13 30.46L217.27 29.27L216.38 28.09L215.47 26.94L214.53 25.8L213.57 24.68L212.58 23.58L211.57 22.5L210.54 21.44L209.49 20.41L208.42 19.4L207.32 18.42L206.21 17.46L205.08 16.52L203.94 15.61L202.77 14.72L201.6 13.86L200.4 13.02L199.18 12.22L197.95 11.43L196.71 10.67L195.45 9.94L194.17 9.23L192.89 8.55L191.59 7.89L190.27 7.27L188.94 6.67L187.61 6.1L186.26 5.56L184.89 5.04L183.52 4.55L182.14 4.09L180.75 3.66L179.35 3.25L177.94 2.87L176.52 2.53L175.1 2.21L173.67 1.92L172.22 1.67L170.78 1.44L169.32 1.24L167.87 1.07L166.4 0.93L164.94 0.82L163.46 0.74L161.99 0.69L160.51 0.68L160.51 0.68L160.39 0.68L160.24 0.68L160.07 0.68Z" id="e1kTZSMX2R"></path><path d="M90.76 84.2L90.73 83.84L90.7 83.48L90.66 83.13L90.64 82.79L90.61 82.46L90.58 82.13L90.56 81.82L90.53 81.51L90.5 81.22L90.48 80.92L90.45 80.65L90.43 80.37L90.41 80.11L90.39 79.86L90.36 79.62L90.34 79.37L90.32 79.15L90.3 78.93L90.29 78.72L90.26 78.52L90.25 78.32L90.24 78.14L90.21 77.96L90.2 77.79L90.19 77.63L90.18 77.48L90.16 77.34L90.15 77.2L90.14 77.08L90.13 76.97L90.12 76.85L90.11 76.76L90.11 76.67L90.1 76.58L90.09 76.51L90.09 76.45L90.08 76.39L90.08 76.35L89.99 75.12L89.91 73.9L89.87 72.68L89.85 71.47L89.86 70.25L89.89 69.05L89.95 67.85L90.03 66.65L90.14 65.45L90.26 64.27L90.41 63.08L90.59 61.9L90.8 60.73L91.02 59.57L91.27 58.4L91.55 57.25L91.84 56.1L92.16 54.97L92.51 53.83L92.88 52.71L93.27 51.6L93.69 50.49L94.13 49.39L94.59 48.3L95.07 47.22L95.59 46.15L96.11 45.08L96.66 44.02L97.24 42.98L97.84 41.95L98.46 40.93L99.11 39.92L99.77 38.92L100.46 37.93L101.17 36.96L101.91 35.99L102.66 35.04L103.44 34.1L104.24 33.17L105.05 32.26L105.89 31.37L106.75 30.49L107.61 29.64L108.5 28.8L109.39 27.99L110.31 27.19L111.23 26.42L112.17 25.67L113.12 24.94L114.09 24.24L115.06 23.55L116.05 22.89L117.05 22.24L118.06 21.62L119.09 21.02L120.12 20.44L121.17 19.89L122.22 19.36L123.29 18.85L124.37 18.36L125.45 17.89L126.55 17.45L127.66 17.04L128.77 16.64L129.9 16.27L131.03 15.92L132.17 15.59L133.32 15.29L134.48 15.01L135.64 14.75L136.82 14.52L137.99 14.31L139.19 14.13L140.38 13.97L141.57 13.83L142.78 13.72L143.99 13.64L145.21 13.57L146.43 13.54L147.66 13.52L147.77 13.52L147.92 13.52L148.09 13.52L148.29 13.52L148.53 13.52L148.78 13.52L149.07 13.52L149.37 13.52L149.69 13.52L150.03 13.52L150.39 13.52L150.76 13.52L151.14 13.52L151.54 13.52L151.95 13.52L152.37 13.52L152.79 13.52L153.22 13.52L153.65 13.52L154.08 13.52L154.52 13.52L154.94 13.52L155.37 13.52L155.8 13.52L156.22 13.52L156.62 13.52L157.02 13.52L157.41 13.52L157.78 13.52L158.14 13.52L158.48 13.52L158.8 13.52L159.1 13.52L159.38 13.52L159.64 13.52L159.87 13.52L160.07 13.52L160.24 13.52L160.39 13.52L160.51 13.52L161.73 13.54L162.96 13.57L164.17 13.64L165.39 13.72L166.59 13.83L167.79 13.97L168.98 14.13L170.17 14.31L171.35 14.52L172.52 14.75L173.69 15.01L174.84 15.29L175.99 15.59L177.14 15.92L178.27 16.27L179.39 16.64L180.51 17.04L181.62 17.45L182.71 17.89L183.8 18.36L184.87 18.85L185.94 19.36L187 19.89L188.04 20.44L189.08 21.02L190.1 21.62L191.12 22.24L192.12 22.89L193.1 23.55L194.08 24.24L195.05 24.94L196 25.67L196.93 26.42L197.86 27.19L198.77 27.99L199.67 28.8L200.55 29.64L201.42 30.49L202.27 31.37L203.11 32.26L203.93 33.17L204.73 34.1L205.51 35.04L206.26 35.99L207 36.96L207.7 37.93L208.4 38.92L209.06 39.92L209.7 40.93L210.32 41.95L210.92 42.98L211.5 44.02L212.05 45.08L212.59 46.15L213.1 47.22L213.58 48.3L214.04 49.39L214.48 50.49L214.9 51.6L215.29 52.71L215.66 53.83L216 54.97L216.32 56.1L216.62 57.25L216.9 58.4L217.15 59.57L217.37 60.73L217.57 61.9L217.75 63.08L217.91 64.27L218.04 65.45L218.14 66.65L218.22 67.85L218.28 69.05L218.31 70.25L218.32 71.47L218.3 72.68L218.25 73.9L218.19 75.12L218.09 76.35L218.08 76.49L218.07 76.66L218.05 76.85L218.03 77.08L218 77.32L217.98 77.6L217.95 77.9L217.92 78.23L217.9 78.59L217.86 78.97L217.83 79.37L217.79 79.8L217.75 80.27L217.71 80.75L217.67 81.26L217.62 81.8L217.57 82.36L217.52 82.95L217.46 83.57L217.41 84.21L217.35 84.88L217.29 85.57L217.22 86.3L217.16 87.05L217.1 87.82L217.02 88.62L216.95 89.45L216.87 90.3L216.8 91.17L216.72 92.08L216.64 93.01L216.56 93.97L216.47 94.95L216.38 95.96L216.3 97L216.2 98.06L216.1 99.15L216.01 100.26L215.91 101.4L215.81 102.57L203.07 100.77L103.88 86.8L103.88 86.8L90.83 84.96L90.79 84.57L90.76 84.2ZM195.4 112.67L195.51 112.68L195.64 112.7L195.8 112.72L195.97 112.75L196.17 112.77L196.4 112.81L196.63 112.84L196.89 112.87L197.16 112.92L197.44 112.95L197.73 113L198.04 113.04L198.35 113.08L198.67 113.12L199 113.17L199.32 113.22L199.65 113.27L199.97 113.31L200.3 113.36L200.62 113.4L200.95 113.45L201.26 113.49L201.56 113.53L201.85 113.57L202.14 113.62L202.4 113.65L202.66 113.69L202.9 113.72L203.12 113.75L203.32 113.78L203.5 113.81L203.65 113.83L203.78 113.85L203.89 113.86L203.97 113.87L204.02 113.88L204.03 113.88L203.53 114.21L202.9 114.64L202.12 115.15L201.22 115.75L200.21 116.43L199.08 117.18L197.85 118L196.52 118.88L195.1 119.83L193.61 120.83L192.03 121.87L190.39 122.96L188.69 124.1L186.94 125.26L185.15 126.45L183.32 127.68L181.45 128.92L179.57 130.17L177.67 131.43L175.77 132.7L173.86 133.98L171.96 135.24L170.07 136.5L168.21 137.73L166.38 138.95L164.58 140.15L162.83 141.32L161.14 142.45L159.49 143.54L157.92 144.59L156.42 145.58L155.01 146.53L153.68 147.41L152.44 148.23L151.32 148.98L150.3 149.66L149.41 150.26L148.64 150.78L147.99 151.2L147.5 151.53L147.28 151.67L147.06 151.8L146.84 151.94L146.62 152.06L146.39 152.19L146.17 152.3L145.94 152.42L145.7 152.53L145.47 152.63L145.24 152.73L145 152.83L144.77 152.91L144.52 153L144.29 153.08L144.04 153.15L143.8 153.23L143.56 153.29L143.32 153.35L143.07 153.4L142.82 153.45L142.57 153.5L142.32 153.54L142.07 153.58L141.82 153.61L141.57 153.63L141.32 153.65L141.07 153.67L140.82 153.68L140.57 153.69L140.31 153.69L140.06 153.68L139.8 153.68L139.55 153.66L139.29 153.64L139.04 153.62L138.79 153.58L138.54 153.55L138.28 153.51L138.03 153.46L137.77 153.41L137.52 153.36L137.27 153.3L137.02 153.23L136.77 153.16L136.53 153.09L136.29 153.01L136.04 152.93L135.8 152.84L135.57 152.75L135.33 152.65L135.1 152.55L134.87 152.45L134.64 152.33L134.42 152.22L134.19 152.1L133.97 151.98L133.76 151.85L133.54 151.72L133.33 151.58L133.12 151.44L132.92 151.3L132.71 151.15L132.51 151L132.31 150.84L132.12 150.68L131.92 150.51L131.74 150.35L131.55 150.18L131.37 150L131.19 149.82L131.02 149.63L130.84 149.45L130.67 149.25L130.51 149.06L130.34 148.86L130.19 148.66L130.03 148.45L129.88 148.25L129.74 148.03L129.59 147.82L129.42 147.55L129.21 147.23L128.97 146.87L128.7 146.45L128.4 145.98L128.07 145.47L127.71 144.91L127.31 144.3L126.88 143.64L126.42 142.93L125.93 142.17L125.41 141.37L124.86 140.51L124.27 139.6L123.65 138.65L123 137.65L122.32 136.6L121.61 135.5L120.87 134.35L120.09 133.15L119.28 131.9L118.44 130.61L117.57 129.27L116.67 127.87L115.74 126.43L114.76 124.94L113.77 123.4L112.74 121.81L111.68 120.17L110.59 118.48L109.46 116.75L108.31 114.97L107.12 113.13L105.9 111.25L104.65 109.32L103.36 107.34L102.05 105.31L100.71 103.23L99.33 101.1L97.92 98.93L101.78 99.47L105.56 100L109.27 100.53L112.91 101.04L116.47 101.55L119.97 102.04L123.39 102.52L126.73 102.99L130.01 103.45L133.21 103.9L136.33 104.35L139.39 104.77L142.37 105.2L145.27 105.6L148.11 106L150.87 106.39L153.56 106.77L156.18 107.14L158.72 107.5L161.19 107.85L163.59 108.18L165.91 108.51L168.16 108.83L170.34 109.14L172.44 109.43L174.47 109.72L176.44 110L178.32 110.26L180.13 110.52L181.87 110.76L183.54 111L185.14 111.22L186.66 111.44L188.1 111.64L189.48 111.83L190.78 112.02L192.01 112.19L193.17 112.35L194.25 112.5L195.26 112.65L195.26 112.65L195.27 112.65L195.32 112.66L195.4 112.67ZM201.8 260.25L201.43 261.93L201 263.57L200.52 265.19L199.97 266.78L199.37 268.35L198.71 269.88L198 271.38L197.23 272.85L196.42 274.29L195.55 275.69L194.64 277.04L193.68 278.37L192.67 279.66L191.62 280.91L190.52 282.11L189.38 283.28L188.2 284.4L186.98 285.48L185.72 286.51L184.42 287.5L183.09 288.44L181.72 289.34L180.32 290.18L178.88 290.96L177.41 291.71L175.91 292.39L174.38 293.03L172.83 293.61L171.24 294.13L169.64 294.59L168 295L166.34 295.35L164.67 295.64L162.97 295.86L161.25 296.02L159.51 296.12L157.76 296.15L157.69 296.15L157.61 296.15L157.51 296.15L157.39 296.15L157.26 296.15L157.12 296.15L156.95 296.15L156.78 296.15L156.59 296.15L156.4 296.15L156.19 296.15L155.99 296.15L155.77 296.15L155.54 296.15L155.3 296.15L155.07 296.15L154.82 296.15L154.58 296.15L154.33 296.15L154.08 296.15L153.84 296.15L153.59 296.15L153.34 296.15L153.1 296.15L152.86 296.15L152.63 296.15L152.4 296.15L152.18 296.15L151.97 296.15L151.76 296.15L151.57 296.15L151.38 296.15L151.21 296.15L151.05 296.15L150.9 296.15L150.77 296.15L150.65 296.15L150.55 296.15L150.47 296.15L150.41 296.15L148.65 296.12L146.92 296.02L145.19 295.86L143.49 295.64L141.82 295.35L140.17 295L138.53 294.59L136.92 294.13L135.34 293.61L133.78 293.03L132.25 292.39L130.75 291.71L129.29 290.96L127.85 290.18L126.44 289.34L125.07 288.44L123.74 287.5L122.44 286.51L121.19 285.48L119.97 284.4L118.78 283.28L117.64 282.11L116.54 280.91L115.49 279.66L114.49 278.37L113.53 277.04L112.61 275.69L111.75 274.29L110.94 272.85L110.17 271.38L109.46 269.88L108.8 268.35L108.2 266.78L107.65 265.19L107.16 263.57L106.73 261.93L106.36 260.25L106.05 258.56L105.8 256.83L105.61 255.08L105.55 254.32L105.47 253.41L105.38 252.37L105.28 251.18L105.16 249.86L105.04 248.4L104.89 246.8L104.74 245.06L104.58 243.17L104.41 241.15L104.21 238.99L104.01 236.69L103.81 234.26L103.58 231.68L103.34 228.96L103.09 226.11L102.84 223.11L102.56 219.97L102.28 216.7L101.98 213.28L101.67 209.73L101.35 206.04L101.02 202.21L100.67 198.23L100.31 194.13L99.94 189.88L99.56 185.48L99.17 180.95L98.76 176.29L98.35 171.48L97.91 166.53L97.47 161.45L97.02 156.23L96.56 150.86L96.08 145.35L95.59 139.71L95.08 133.93L94.56 128L94.04 121.95L93.5 115.75L94.63 117.48L95.73 119.18L96.81 120.84L97.86 122.46L98.88 124.05L99.88 125.59L100.86 127.1L101.81 128.56L102.73 129.98L103.63 131.37L104.5 132.72L105.35 134.03L106.17 135.3L106.97 136.53L107.74 137.72L108.49 138.88L109.21 139.98L109.91 141.06L110.58 142.1L111.22 143.09L111.84 144.05L112.44 144.97L113.01 145.85L113.56 146.68L114.07 147.49L114.56 148.25L115.04 148.97L115.48 149.65L115.89 150.3L116.29 150.9L116.66 151.47L117 152L117.32 152.49L117.61 152.94L117.87 153.35L118.12 153.72L118.33 154.05L118.52 154.34L118.68 154.6L118.82 154.81L119.11 155.25L119.4 155.67L119.7 156.09L120.01 156.5L120.32 156.9L120.64 157.3L120.98 157.69L121.32 158.07L121.66 158.45L122.01 158.81L122.37 159.18L122.73 159.53L123.1 159.87L123.47 160.2L123.86 160.53L124.24 160.85L124.64 161.17L125.04 161.47L125.45 161.77L125.87 162.05L126.28 162.33L126.71 162.6L127.14 162.87L127.57 163.13L128.01 163.37L128.45 163.61L128.91 163.84L129.36 164.06L129.82 164.27L130.29 164.48L130.75 164.67L131.23 164.85L131.71 165.03L132.19 165.19L132.67 165.35L133.17 165.5L133.66 165.63L134.16 165.76L134.66 165.88L135.17 166L135.3 166.02L135.43 166.05L135.57 166.08L135.69 166.1L135.82 166.12L135.96 166.15L136.09 166.17L136.22 166.19L136.35 166.21L136.49 166.23L136.62 166.25L136.75 166.27L136.88 166.29L137.02 166.3L137.14 166.33L137.28 166.34L137.41 166.35L137.54 166.38L137.67 166.39L137.8 166.4L137.94 166.41L138.07 166.43L138.2 166.44L138.33 166.45L138.47 166.46L138.59 166.47L138.73 166.48L138.86 166.49L138.99 166.5L139.12 166.5L139.25 166.51L139.39 166.52L139.52 166.52L139.65 166.53L139.78 166.53L139.91 166.53L140.04 166.53L140.17 166.53L140.3 166.54L140.44 166.54L140.81 166.53L141.19 166.53L141.56 166.51L141.93 166.5L142.31 166.47L142.68 166.44L143.05 166.4L143.42 166.36L143.79 166.32L144.16 166.26L144.53 166.2L144.89 166.14L145.27 166.08L145.63 166L145.99 165.92L146.36 165.84L146.72 165.75L147.08 165.65L147.44 165.55L147.8 165.45L148.16 165.33L148.52 165.22L148.87 165.1L149.22 164.97L149.57 164.83L149.92 164.7L150.27 164.55L150.62 164.4L150.96 164.25L151.3 164.1L151.64 163.93L151.99 163.76L152.32 163.58L152.66 163.4L152.99 163.22L153.32 163.03L153.65 162.83L153.98 162.63L154.3 162.43L154.62 162.22L154.95 162L155.34 161.74L155.78 161.45L156.29 161.11L156.85 160.73L157.48 160.32L158.16 159.86L158.9 159.37L159.71 158.83L160.57 158.26L161.49 157.65L162.47 156.99L163.51 156.3L164.61 155.57L165.77 154.8L166.99 153.98L168.27 153.13L169.6 152.24L171 151.31L172.46 150.34L173.97 149.33L175.54 148.28L177.18 147.2L178.87 146.07L180.63 144.9L182.44 143.69L184.32 142.45L186.24 141.15L188.24 139.83L190.29 138.47L192.4 137.06L194.57 135.61L196.8 134.13L199.09 132.6L201.44 131.04L203.85 129.44L206.31 127.8L208.84 126.11L211.42 124.39L214.07 122.63L213.61 127.88L213.16 133.03L212.72 138.08L212.3 143.03L211.87 147.88L211.46 152.63L211.05 157.28L210.66 161.84L210.27 166.29L209.89 170.65L209.52 174.9L209.16 179.05L208.81 183.11L208.46 187.07L208.12 190.93L207.8 194.68L207.48 198.35L207.17 201.91L206.87 205.36L206.58 208.73L206.3 211.99L206.02 215.15L205.75 218.21L205.5 221.18L205.25 224.04L205.01 226.81L204.77 229.47L204.55 232.04L204.34 234.51L204.13 236.87L203.93 239.14L203.75 241.31L203.57 243.38L203.4 245.35L203.23 247.22L203.07 248.99L202.93 250.66L202.8 252.24L202.67 253.71L202.55 255.08L202.55 255.08L202.36 256.83L202.12 258.56L201.8 260.25ZM160.07 0.68L159.87 0.68L159.64 0.68L159.38 0.68L159.1 0.68L158.8 0.68L158.48 0.68L158.14 0.68L157.78 0.68L157.41 0.68L157.02 0.68L156.62 0.68L156.22 0.68L155.8 0.68L155.37 0.68L154.94 0.68L154.52 0.68L154.08 0.68L153.65 0.68L153.22 0.68L152.79 0.68L152.37 0.68L151.95 0.68L151.54 0.68L151.14 0.68L150.76 0.68L150.39 0.68L150.03 0.68L149.69 0.68L149.37 0.68L149.07 0.68L148.78 0.68L148.53 0.68L148.29 0.68L148.09 0.68L147.92 0.68L147.77 0.68L147.66 0.68L146.18 0.69L144.7 0.74L143.23 0.82L141.76 0.93L140.29 1.07L138.84 1.24L137.39 1.44L135.94 1.67L134.5 1.92L133.07 2.21L131.64 2.53L130.22 2.87L128.81 3.25L127.41 3.66L126.02 4.09L124.64 4.55L123.27 5.04L121.91 5.56L120.56 6.1L119.22 6.67L117.89 7.27L116.58 7.89L115.27 8.55L113.99 9.23L112.71 9.94L111.46 10.67L110.21 11.43L108.98 12.22L107.76 13.02L106.57 13.86L105.39 14.72L104.23 15.61L103.08 16.52L101.95 17.46L100.84 18.42L99.75 19.4L98.68 20.41L97.63 21.44L96.59 22.5L95.59 23.58L94.59 24.68L93.63 25.8L92.69 26.94L91.78 28.09L90.89 29.27L90.04 30.46L89.2 31.67L88.39 32.89L87.61 34.12L86.85 35.37L86.12 36.64L85.41 37.92L84.74 39.21L84.09 40.52L83.47 41.84L82.88 43.17L82.31 44.51L81.77 45.86L81.26 47.22L80.78 48.6L80.32 49.98L79.9 51.37L79.5 52.77L79.13 54.18L78.79 55.6L78.48 57.02L78.2 58.45L77.94 59.9L77.72 61.34L77.53 62.78L77.36 64.24L77.24 65.7L77.13 67.15L77.06 68.62L77.01 70.09L77 71.56L77.02 73.03L77.07 74.5L77.15 75.98L77.26 77.45L77.4 79.02L77.57 81.05L77.79 83.48L78.04 86.32L78.31 89.53L78.62 93.1L78.96 97L79.33 101.2L79.71 105.67L80.13 110.41L80.56 115.38L81.01 120.57L81.48 125.94L81.96 131.48L82.46 137.15L82.96 142.95L83.47 148.84L83.99 154.8L84.51 160.8L85.04 166.83L85.56 172.85L86.09 178.86L86.6 184.82L87.11 190.71L87.62 196.51L88.11 202.18L88.59 207.72L89.06 213.09L89.51 218.27L89.94 223.25L90.36 227.98L90.75 232.46L91.11 236.66L91.45 240.56L91.76 244.12L92.04 247.33L92.29 250.18L92.5 252.61L92.67 254.63L92.81 256.21L93.05 258.45L93.37 260.66L93.76 262.84L94.24 264.99L94.8 267.11L95.43 269.19L96.14 271.24L96.91 273.25L97.75 275.22L98.67 277.15L99.65 279.04L100.7 280.88L101.81 282.68L102.99 284.43L104.22 286.14L105.51 287.79L106.87 289.39L108.28 290.94L109.74 292.44L111.26 293.89L112.84 295.27L114.45 296.6L116.12 297.87L117.84 299.09L119.6 300.23L121.4 301.31L123.25 302.33L125.14 303.29L127.07 304.16L129.03 304.99L131.03 305.73L133.07 306.4L135.14 306.99L137.24 307.52L139.37 307.96L141.52 308.34L143.71 308.62L145.92 308.83L148.15 308.96L150.41 309L150.47 309L150.55 309L150.65 309L150.77 309L150.9 309L151.05 309L151.21 309L151.38 309L151.57 309L151.76 309L151.97 309L152.18 309L152.4 309L152.63 309L152.86 309L153.1 309L153.34 309L153.59 309L153.84 309L154.08 309L154.33 309L154.58 309L154.82 309L155.07 309L155.3 309L155.54 309L155.77 309L155.99 309L156.19 309L156.4 309L156.59 309L156.78 309L156.95 309L157.12 309L157.26 309L157.39 309L157.51 309L157.61 309L157.69 309L157.76 309L160.02 308.96L162.24 308.83L164.46 308.62L166.64 308.34L168.8 307.96L170.93 307.52L173.03 306.99L175.1 306.4L177.14 305.73L179.14 304.99L181.1 304.16L183.03 303.29L184.92 302.33L186.77 301.31L188.57 300.23L190.33 299.09L192.04 297.87L193.72 296.6L195.34 295.27L196.9 293.89L198.42 292.44L199.89 290.94L201.3 289.39L202.65 287.79L203.95 286.14L205.18 284.43L206.36 282.68L207.47 280.88L208.52 279.04L209.5 277.15L210.42 275.22L211.26 273.25L212.03 271.24L212.74 269.19L213.37 267.11L213.92 264.99L214.4 262.84L214.8 260.66L215.12 258.45L215.36 256.21L215.5 254.63L215.67 252.61L215.88 250.18L216.13 247.33L216.41 244.12L216.72 240.56L217.05 236.66L217.42 232.46L217.81 227.98L218.22 223.25L218.65 218.27L219.11 213.09L219.57 207.72L220.05 202.18L220.55 196.51L221.05 190.71L221.57 184.82L222.08 178.86L222.6 172.85L223.13 166.83L223.65 160.8L224.17 154.8L224.7 148.84L225.2 142.95L225.71 137.15L226.2 131.48L226.69 125.94L227.15 120.57L227.6 115.38L228.04 110.41L228.45 105.67L228.84 101.2L229.2 97L229.54 93.1L229.85 89.53L230.13 86.32L230.37 83.48L230.59 81.05L230.77 79.02L230.9 77.45L231.01 75.98L231.1 74.5L231.15 73.03L231.16 71.56L231.15 70.09L231.11 68.62L231.03 67.15L230.93 65.7L230.8 64.24L230.63 62.78L230.44 61.34L230.22 59.9L229.97 58.45L229.68 57.02L229.37 55.6L229.03 54.18L228.67 52.77L228.27 51.37L227.84 49.98L227.39 48.6L226.9 47.22L226.39 45.86L225.85 44.51L225.29 43.17L224.7 41.84L224.07 40.52L223.42 39.21L222.75 37.92L222.05 36.64L221.32 35.37L220.56 34.12L219.77 32.89L218.97 31.67L218.13 30.46L217.27 29.27L216.38 28.09L215.47 26.94L214.53 25.8L213.57 24.68L212.58 23.58L211.57 22.5L210.54 21.44L209.49 20.41L208.42 19.4L207.32 18.42L206.21 17.46L205.08 16.52L203.94 15.61L202.77 14.72L201.6 13.86L200.4 13.02L199.18 12.22L197.95 11.43L196.71 10.67L195.45 9.94L194.17 9.23L192.89 8.55L191.59 7.89L190.27 7.27L188.94 6.67L187.61 6.1L186.26 5.56L184.89 5.04L183.52 4.55L182.14 4.09L180.75 3.66L179.35 3.25L177.94 2.87L176.52 2.53L175.1 2.21L173.67 1.92L172.22 1.67L170.78 1.44L169.32 1.24L167.87 1.07L166.4 0.93L164.94 0.82L163.46 0.74L161.99 0.69L160.51 0.68L160.51 0.68L160.39 0.68L160.24 0.68L160.07 0.68Z" id="a10ubJPxlH"></path><path d="M90.76 84.2L90.73 83.84L90.7 83.48L90.66 83.13L90.64 82.79L90.61 82.46L90.58 82.13L90.56 81.82L90.53 81.51L90.5 81.22L90.48 80.92L90.45 80.65L90.43 80.37L90.41 80.11L90.39 79.86L90.36 79.62L90.34 79.37L90.32 79.15L90.3 78.93L90.29 78.72L90.26 78.52L90.25 78.32L90.24 78.14L90.21 77.96L90.2 77.79L90.19 77.63L90.18 77.48L90.16 77.34L90.15 77.2L90.14 77.08L90.13 76.97L90.12 76.85L90.11 76.76L90.11 76.67L90.1 76.58L90.09 76.51L90.09 76.45L90.08 76.39L90.08 76.35L89.99 75.12L89.91 73.9L89.87 72.68L89.85 71.47L89.86 70.25L89.89 69.05L89.95 67.85L90.03 66.65L90.14 65.45L90.26 64.27L90.41 63.08L90.59 61.9L90.8 60.73L91.02 59.57L91.27 58.4L91.55 57.25L91.84 56.1L92.16 54.97L92.51 53.83L92.88 52.71L93.27 51.6L93.69 50.49L94.13 49.39L94.59 48.3L95.07 47.22L95.59 46.15L96.11 45.08L96.66 44.02L97.24 42.98L97.84 41.95L98.46 40.93L99.11 39.92L99.77 38.92L100.46 37.93L101.17 36.96L101.91 35.99L102.66 35.04L103.44 34.1L104.24 33.17L105.05 32.26L105.89 31.37L106.75 30.49L107.61 29.64L108.5 28.8L109.39 27.99L110.31 27.19L111.23 26.42L112.17 25.67L113.12 24.94L114.09 24.24L115.06 23.55L116.05 22.89L117.05 22.24L118.06 21.62L119.09 21.02L120.12 20.44L121.17 19.89L122.22 19.36L123.29 18.85L124.37 18.36L125.45 17.89L126.55 17.45L127.66 17.04L128.77 16.64L129.9 16.27L131.03 15.92L132.17 15.59L133.32 15.29L134.48 15.01L135.64 14.75L136.82 14.52L137.99 14.31L139.19 14.13L140.38 13.97L141.57 13.83L142.78 13.72L143.99 13.64L145.21 13.57L146.43 13.54L147.66 13.52L147.77 13.52L147.92 13.52L148.09 13.52L148.29 13.52L148.53 13.52L148.78 13.52L149.07 13.52L149.37 13.52L149.69 13.52L150.03 13.52L150.39 13.52L150.76 13.52L151.14 13.52L151.54 13.52L151.95 13.52L152.37 13.52L152.79 13.52L153.22 13.52L153.65 13.52L154.08 13.52L154.52 13.52L154.94 13.52L155.37 13.52L155.8 13.52L156.22 13.52L156.62 13.52L157.02 13.52L157.41 13.52L157.78 13.52L158.14 13.52L158.48 13.52L158.8 13.52L159.1 13.52L159.38 13.52L159.64 13.52L159.87 13.52L160.07 13.52L160.24 13.52L160.39 13.52L160.51 13.52L161.73 13.54L162.96 13.57L164.17 13.64L165.39 13.72L166.59 13.83L167.79 13.97L168.98 14.13L170.17 14.31L171.35 14.52L172.52 14.75L173.69 15.01L174.84 15.29L175.99 15.59L177.14 15.92L178.27 16.27L179.39 16.64L180.51 17.04L181.62 17.45L182.71 17.89L183.8 18.36L184.87 18.85L185.94 19.36L187 19.89L188.04 20.44L189.08 21.02L190.1 21.62L191.12 22.24L192.12 22.89L193.1 23.55L194.08 24.24L195.05 24.94L196 25.67L196.93 26.42L197.86 27.19L198.77 27.99L199.67 28.8L200.55 29.64L201.42 30.49L202.27 31.37L203.11 32.26L203.93 33.17L204.73 34.1L205.51 35.04L206.26 35.99L207 36.96L207.7 37.93L208.4 38.92L209.06 39.92L209.7 40.93L210.32 41.95L210.92 42.98L211.5 44.02L212.05 45.08L212.59 46.15L213.1 47.22L213.58 48.3L214.04 49.39L214.48 50.49L214.9 51.6L215.29 52.71L215.66 53.83L216 54.97L216.32 56.1L216.62 57.25L216.9 58.4L217.15 59.57L217.37 60.73L217.57 61.9L217.75 63.08L217.91 64.27L218.04 65.45L218.14 66.65L218.22 67.85L218.28 69.05L218.31 70.25L218.32 71.47L218.3 72.68L218.25 73.9L218.19 75.12L218.09 76.35L218.08 76.49L218.07 76.66L218.05 76.85L218.03 77.08L218 77.32L217.98 77.6L217.95 77.9L217.92 78.23L217.9 78.59L217.86 78.97L217.83 79.37L217.79 79.8L217.75 80.27L217.71 80.75L217.67 81.26L217.62 81.8L217.57 82.36L217.52 82.95L217.46 83.57L217.41 84.21L217.35 84.88L217.29 85.57L217.22 86.3L217.16 87.05L217.1 87.82L217.02 88.62L216.95 89.45L216.87 90.3L216.8 91.17L216.72 92.08L216.64 93.01L216.56 93.97L216.47 94.95L216.38 95.96L216.3 97L216.2 98.06L216.1 99.15L216.01 100.26L215.91 101.4L215.81 102.57L203.07 100.77L103.88 86.8L103.88 86.8L90.83 84.96L90.79 84.57L90.76 84.2ZM195.4 112.67L195.51 112.68L195.64 112.7L195.8 112.72L195.97 112.75L196.17 112.77L196.4 112.81L196.63 112.84L196.89 112.87L197.16 112.92L197.44 112.95L197.73 113L198.04 113.04L198.35 113.08L198.67 113.12L199 113.17L199.32 113.22L199.65 113.27L199.97 113.31L200.3 113.36L200.62 113.4L200.95 113.45L201.26 113.49L201.56 113.53L201.85 113.57L202.14 113.62L202.4 113.65L202.66 113.69L202.9 113.72L203.12 113.75L203.32 113.78L203.5 113.81L203.65 113.83L203.78 113.85L203.89 113.86L203.97 113.87L204.02 113.88L204.03 113.88L203.53 114.21L202.9 114.64L202.12 115.15L201.22 115.75L200.21 116.43L199.08 117.18L197.85 118L196.52 118.88L195.1 119.83L193.61 120.83L192.03 121.87L190.39 122.96L188.69 124.1L186.94 125.26L185.15 126.45L183.32 127.68L181.45 128.92L179.57 130.17L177.67 131.43L175.77 132.7L173.86 133.98L171.96 135.24L170.07 136.5L168.21 137.73L166.38 138.95L164.58 140.15L162.83 141.32L161.14 142.45L159.49 143.54L157.92 144.59L156.42 145.58L155.01 146.53L153.68 147.41L152.44 148.23L151.32 148.98L150.3 149.66L149.41 150.26L148.64 150.78L147.99 151.2L147.5 151.53L147.28 151.67L147.06 151.8L146.84 151.94L146.62 152.06L146.39 152.19L146.17 152.3L145.94 152.42L145.7 152.53L145.47 152.63L145.24 152.73L145 152.83L144.77 152.91L144.52 153L144.29 153.08L144.04 153.15L143.8 153.23L143.56 153.29L143.32 153.35L143.07 153.4L142.82 153.45L142.57 153.5L142.32 153.54L142.07 153.58L141.82 153.61L141.57 153.63L141.32 153.65L141.07 153.67L140.82 153.68L140.57 153.69L140.31 153.69L140.06 153.68L139.8 153.68L139.55 153.66L139.29 153.64L139.04 153.62L138.79 153.58L138.54 153.55L138.28 153.51L138.03 153.46L137.77 153.41L137.52 153.36L137.27 153.3L137.02 153.23L136.77 153.16L136.53 153.09L136.29 153.01L136.04 152.93L135.8 152.84L135.57 152.75L135.33 152.65L135.1 152.55L134.87 152.45L134.64 152.33L134.42 152.22L134.19 152.1L133.97 151.98L133.76 151.85L133.54 151.72L133.33 151.58L133.12 151.44L132.92 151.3L132.71 151.15L132.51 151L132.31 150.84L132.12 150.68L131.92 150.51L131.74 150.35L131.55 150.18L131.37 150L131.19 149.82L131.02 149.63L130.84 149.45L130.67 149.25L130.51 149.06L130.34 148.86L130.19 148.66L130.03 148.45L129.88 148.25L129.74 148.03L129.59 147.82L129.42 147.55L129.21 147.23L128.97 146.87L128.7 146.45L128.4 145.98L128.07 145.47L127.71 144.91L127.31 144.3L126.88 143.64L126.42 142.93L125.93 142.17L125.41 141.37L124.86 140.51L124.27 139.6L123.65 138.65L123 137.65L122.32 136.6L121.61 135.5L120.87 134.35L120.09 133.15L119.28 131.9L118.44 130.61L117.57 129.27L116.67 127.87L115.74 126.43L114.76 124.94L113.77 123.4L112.74 121.81L111.68 120.17L110.59 118.48L109.46 116.75L108.31 114.97L107.12 113.13L105.9 111.25L104.65 109.32L103.36 107.34L102.05 105.31L100.71 103.23L99.33 101.1L97.92 98.93L101.78 99.47L105.56 100L109.27 100.53L112.91 101.04L116.47 101.55L119.97 102.04L123.39 102.52L126.73 102.99L130.01 103.45L133.21 103.9L136.33 104.35L139.39 104.77L142.37 105.2L145.27 105.6L148.11 106L150.87 106.39L153.56 106.77L156.18 107.14L158.72 107.5L161.19 107.85L163.59 108.18L165.91 108.51L168.16 108.83L170.34 109.14L172.44 109.43L174.47 109.72L176.44 110L178.32 110.26L180.13 110.52L181.87 110.76L183.54 111L185.14 111.22L186.66 111.44L188.1 111.64L189.48 111.83L190.78 112.02L192.01 112.19L193.17 112.35L194.25 112.5L195.26 112.65L195.26 112.65L195.27 112.65L195.32 112.66L195.4 112.67ZM201.8 260.25L201.43 261.93L201 263.57L200.52 265.19L199.97 266.78L199.37 268.35L198.71 269.88L198 271.38L197.23 272.85L196.42 274.29L195.55 275.69L194.64 277.04L193.68 278.37L192.67 279.66L191.62 280.91L190.52 282.11L189.38 283.28L188.2 284.4L186.98 285.48L185.72 286.51L184.42 287.5L183.09 288.44L181.72 289.34L180.32 290.18L178.88 290.96L177.41 291.71L175.91 292.39L174.38 293.03L172.83 293.61L171.24 294.13L169.64 294.59L168 295L166.34 295.35L164.67 295.64L162.97 295.86L161.25 296.02L159.51 296.12L157.76 296.15L157.69 296.15L157.61 296.15L157.51 296.15L157.39 296.15L157.26 296.15L157.12 296.15L156.95 296.15L156.78 296.15L156.59 296.15L156.4 296.15L156.19 296.15L155.99 296.15L155.77 296.15L155.54 296.15L155.3 296.15L155.07 296.15L154.82 296.15L154.58 296.15L154.33 296.15L154.08 296.15L153.84 296.15L153.59 296.15L153.34 296.15L153.1 296.15L152.86 296.15L152.63 296.15L152.4 296.15L152.18 296.15L151.97 296.15L151.76 296.15L151.57 296.15L151.38 296.15L151.21 296.15L151.05 296.15L150.9 296.15L150.77 296.15L150.65 296.15L150.55 296.15L150.47 296.15L150.41 296.15L148.65 296.12L146.92 296.02L145.19 295.86L143.49 295.64L141.82 295.35L140.17 295L138.53 294.59L136.92 294.13L135.34 293.61L133.78 293.03L132.25 292.39L130.75 291.71L129.29 290.96L127.85 290.18L126.44 289.34L125.07 288.44L123.74 287.5L122.44 286.51L121.19 285.48L119.97 284.4L118.78 283.28L117.64 282.11L116.54 280.91L115.49 279.66L114.49 278.37L113.53 277.04L112.61 275.69L111.75 274.29L110.94 272.85L110.17 271.38L109.46 269.88L108.8 268.35L108.2 266.78L107.65 265.19L107.16 263.57L106.73 261.93L106.36 260.25L106.05 258.56L105.8 256.83L105.61 255.08L105.55 254.32L105.47 253.41L105.38 252.37L105.28 251.18L105.16 249.86L105.04 248.4L104.89 246.8L104.74 245.06L104.58 243.17L104.41 241.15L104.21 238.99L104.01 236.69L103.81 234.26L103.58 231.68L103.34 228.96L103.09 226.11L102.84 223.11L102.56 219.97L102.28 216.7L101.98 213.28L101.67 209.73L101.35 206.04L101.02 202.21L100.67 198.23L100.31 194.13L99.94 189.88L99.56 185.48L99.17 180.95L98.76 176.29L98.35 171.48L97.91 166.53L97.47 161.45L97.02 156.23L96.56 150.86L96.08 145.35L95.59 139.71L95.08 133.93L94.56 128L94.04 121.95L93.5 115.75L94.63 117.48L95.73 119.18L96.81 120.84L97.86 122.46L98.88 124.05L99.88 125.59L100.86 127.1L101.81 128.56L102.73 129.98L103.63 131.37L104.5 132.72L105.35 134.03L106.17 135.3L106.97 136.53L107.74 137.72L108.49 138.88L109.21 139.98L109.91 141.06L110.58 142.1L111.22 143.09L111.84 144.05L112.44 144.97L113.01 145.85L113.56 146.68L114.07 147.49L114.56 148.25L115.04 148.97L115.48 149.65L115.89 150.3L116.29 150.9L116.66 151.47L117 152L117.32 152.49L117.61 152.94L117.87 153.35L118.12 153.72L118.33 154.05L118.52 154.34L118.68 154.6L118.82 154.81L119.11 155.25L119.4 155.67L119.7 156.09L120.01 156.5L120.32 156.9L120.64 157.3L120.98 157.69L121.32 158.07L121.66 158.45L122.01 158.81L122.37 159.18L122.73 159.53L123.1 159.87L123.47 160.2L123.86 160.53L124.24 160.85L124.64 161.17L125.04 161.47L125.45 161.77L125.87 162.05L126.28 162.33L126.71 162.6L127.14 162.87L127.57 163.13L128.01 163.37L128.45 163.61L128.91 163.84L129.36 164.06L129.82 164.27L130.29 164.48L130.75 164.67L131.23 164.85L131.71 165.03L132.19 165.19L132.67 165.35L133.17 165.5L133.66 165.63L134.16 165.76L134.66 165.88L135.17 166L135.3 166.02L135.43 166.05L135.57 166.08L135.69 166.1L135.82 166.12L135.96 166.15L136.09 166.17L136.22 166.19L136.35 166.21L136.49 166.23L136.62 166.25L136.75 166.27L136.88 166.29L137.02 166.3L137.14 166.33L137.28 166.34L137.41 166.35L137.54 166.38L137.67 166.39L137.8 166.4L137.94 166.41L138.07 166.43L138.2 166.44L138.33 166.45L138.47 166.46L138.59 166.47L138.73 166.48L138.86 166.49L138.99 166.5L139.12 166.5L139.25 166.51L139.39 166.52L139.52 166.52L139.65 166.53L139.78 166.53L139.91 166.53L140.04 166.53L140.17 166.53L140.3 166.54L140.44 166.54L140.81 166.53L141.19 166.53L141.56 166.51L141.93 166.5L142.31 166.47L142.68 166.44L143.05 166.4L143.42 166.36L143.79 166.32L144.16 166.26L144.53 166.2L144.89 166.14L145.27 166.08L145.63 166L145.99 165.92L146.36 165.84L146.72 165.75L147.08 165.65L147.44 165.55L147.8 165.45L148.16 165.33L148.52 165.22L148.87 165.1L149.22 164.97L149.57 164.83L149.92 164.7L150.27 164.55L150.62 164.4L150.96 164.25L151.3 164.1L151.64 163.93L151.99 163.76L152.32 163.58L152.66 163.4L152.99 163.22L153.32 163.03L153.65 162.83L153.98 162.63L154.3 162.43L154.62 162.22L154.95 162L155.34 161.74L155.78 161.45L156.29 161.11L156.85 160.73L157.48 160.32L158.16 159.86L158.9 159.37L159.71 158.83L160.57 158.26L161.49 157.65L162.47 156.99L163.51 156.3L164.61 155.57L165.77 154.8L166.99 153.98L168.27 153.13L169.6 152.24L171 151.31L172.46 150.34L173.97 149.33L175.54 148.28L177.18 147.2L178.87 146.07L180.63 144.9L182.44 143.69L184.32 142.45L186.24 141.15L188.24 139.83L190.29 138.47L192.4 137.06L194.57 135.61L196.8 134.13L199.09 132.6L201.44 131.04L203.85 129.44L206.31 127.8L208.84 126.11L211.42 124.39L214.07 122.63L213.61 127.88L213.16 133.03L212.72 138.08L212.3 143.03L211.87 147.88L211.46 152.63L211.05 157.28L210.66 161.84L210.27 166.29L209.89 170.65L209.52 174.9L209.16 179.05L208.81 183.11L208.46 187.07L208.12 190.93L207.8 194.68L207.48 198.35L207.17 201.91L206.87 205.36L206.58 208.73L206.3 211.99L206.02 215.15L205.75 218.21L205.5 221.18L205.25 224.04L205.01 226.81L204.77 229.47L204.55 232.04L204.34 234.51L204.13 236.87L203.93 239.14L203.75 241.31L203.57 243.38L203.4 245.35L203.23 247.22L203.07 248.99L202.93 250.66L202.8 252.24L202.67 253.71L202.55 255.08L202.55 255.08L202.36 256.83L202.12 258.56L201.8 260.25ZM160.07 0.68L159.87 0.68L159.64 0.68L159.38 0.68L159.1 0.68L158.8 0.68L158.48 0.68L158.14 0.68L157.78 0.68L157.41 0.68L157.02 0.68L156.62 0.68L156.22 0.68L155.8 0.68L155.37 0.68L154.94 0.68L154.52 0.68L154.08 0.68L153.65 0.68L153.22 0.68L152.79 0.68L152.37 0.68L151.95 0.68L151.54 0.68L151.14 0.68L150.76 0.68L150.39 0.68L150.03 0.68L149.69 0.68L149.37 0.68L149.07 0.68L148.78 0.68L148.53 0.68L148.29 0.68L148.09 0.68L147.92 0.68L147.77 0.68L147.66 0.68L146.18 0.69L144.7 0.74L143.23 0.82L141.76 0.93L140.29 1.07L138.84 1.24L137.39 1.44L135.94 1.67L134.5 1.92L133.07 2.21L131.64 2.53L130.22 2.87L128.81 3.25L127.41 3.66L126.02 4.09L124.64 4.55L123.27 5.04L121.91 5.56L120.56 6.1L119.22 6.67L117.89 7.27L116.58 7.89L115.27 8.55L113.99 9.23L112.71 9.94L111.46 10.67L110.21 11.43L108.98 12.22L107.76 13.02L106.57 13.86L105.39 14.72L104.23 15.61L103.08 16.52L101.95 17.46L100.84 18.42L99.75 19.4L98.68 20.41L97.63 21.44L96.59 22.5L95.59 23.58L94.59 24.68L93.63 25.8L92.69 26.94L91.78 28.09L90.89 29.27L90.04 30.46L89.2 31.67L88.39 32.89L87.61 34.12L86.85 35.37L86.12 36.64L85.41 37.92L84.74 39.21L84.09 40.52L83.47 41.84L82.88 43.17L82.31 44.51L81.77 45.86L81.26 47.22L80.78 48.6L80.32 49.98L79.9 51.37L79.5 52.77L79.13 54.18L78.79 55.6L78.48 57.02L78.2 58.45L77.94 59.9L77.72 61.34L77.53 62.78L77.36 64.24L77.24 65.7L77.13 67.15L77.06 68.62L77.01 70.09L77 71.56L77.02 73.03L77.07 74.5L77.15 75.98L77.26 77.45L77.4 79.02L77.57 81.05L77.79 83.48L78.04 86.32L78.31 89.53L78.62 93.1L78.96 97L79.33 101.2L79.71 105.67L80.13 110.41L80.56 115.38L81.01 120.57L81.48 125.94L81.96 131.48L82.46 137.15L82.96 142.95L83.47 148.84L83.99 154.8L84.51 160.8L85.04 166.83L85.56 172.85L86.09 178.86L86.6 184.82L87.11 190.71L87.62 196.51L88.11 202.18L88.59 207.72L89.06 213.09L89.51 218.27L89.94 223.25L90.36 227.98L90.75 232.46L91.11 236.66L91.45 240.56L91.76 244.12L92.04 247.33L92.29 250.18L92.5 252.61L92.67 254.63L92.81 256.21L93.05 258.45L93.37 260.66L93.76 262.84L94.24 264.99L94.8 267.11L95.43 269.19L96.14 271.24L96.91 273.25L97.75 275.22L98.67 277.15L99.65 279.04L100.7 280.88L101.81 282.68L102.99 284.43L104.22 286.14L105.51 287.79L106.87 289.39L108.28 290.94L109.74 292.44L111.26 293.89L112.84 295.27L114.45 296.6L116.12 297.87L117.84 299.09L119.6 300.23L121.4 301.31L123.25 302.33L125.14 303.29L127.07 304.16L129.03 304.99L131.03 305.73L133.07 306.4L135.14 306.99L137.24 307.52L139.37 307.96L141.52 308.34L143.71 308.62L145.92 308.83L148.15 308.96L150.41 309L150.47 309L150.55 309L150.65 309L150.77 309L150.9 309L151.05 309L151.21 309L151.38 309L151.57 309L151.76 309L151.97 309L152.18 309L152.4 309L152.63 309L152.86 309L153.1 309L153.34 309L153.59 309L153.84 309L154.08 309L154.33 309L154.58 309L154.82 309L155.07 309L155.3 309L155.54 309L155.77 309L155.99 309L156.19 309L156.4 309L156.59 309L156.78 309L156.95 309L157.12 309L157.26 309L157.39 309L157.51 309L157.61 309L157.69 309L157.76 309L160.02 308.96L162.24 308.83L164.46 308.62L166.64 308.34L168.8 307.96L170.93 307.52L173.03 306.99L175.1 306.4L177.14 305.73L179.14 304.99L181.1 304.16L183.03 303.29L184.92 302.33L186.77 301.31L188.57 300.23L190.33 299.09L192.04 297.87L193.72 296.6L195.34 295.27L196.9 293.89L198.42 292.44L199.89 290.94L201.3 289.39L202.65 287.79L203.95 286.14L205.18 284.43L206.36 282.68L207.47 280.88L208.52 279.04L209.5 277.15L210.42 275.22L211.26 273.25L212.03 271.24L212.74 269.19L213.37 267.11L213.92 264.99L214.4 262.84L214.8 260.66L215.12 258.45L215.36 256.21L215.5 254.63L215.67 252.61L215.88 250.18L216.13 247.33L216.41 244.12L216.72 240.56L217.05 236.66L217.42 232.46L217.81 227.98L218.22 223.25L218.65 218.27L219.11 213.09L219.57 207.72L220.05 202.18L220.55 196.51L221.05 190.71L221.57 184.82L222.08 178.86L222.6 172.85L223.13 166.83L223.65 160.8L224.17 154.8L224.7 148.84L225.2 142.95L225.71 137.15L226.2 131.48L226.69 125.94L227.15 120.57L227.6 115.38L228.04 110.41L228.45 105.67L228.84 101.2L229.2 97L229.54 93.1L229.85 89.53L230.13 86.32L230.37 83.48L230.59 81.05L230.77 79.02L230.9 77.45L231.01 75.98L231.1 74.5L231.15 73.03L231.16 71.56L231.15 70.09L231.11 68.62L231.03 67.15L230.93 65.7L230.8 64.24L230.63 62.78L230.44 61.34L230.22 59.9L229.97 58.45L229.68 57.02L229.37 55.6L229.03 54.18L228.67 52.77L228.27 51.37L227.84 49.98L227.39 48.6L226.9 47.22L226.39 45.86L225.85 44.51L225.29 43.17L224.7 41.84L224.07 40.52L223.42 39.21L222.75 37.92L222.05 36.64L221.32 35.37L220.56 34.12L219.77 32.89L218.97 31.67L218.13 30.46L217.27 29.27L216.38 28.09L215.47 26.94L214.53 25.8L213.57 24.68L212.58 23.58L211.57 22.5L210.54 21.44L209.49 20.41L208.42 19.4L207.32 18.42L206.21 17.46L205.08 16.52L203.94 15.61L202.77 14.72L201.6 13.86L200.4 13.02L199.18 12.22L197.95 11.43L196.71 10.67L195.45 9.94L194.17 9.23L192.89 8.55L191.59 7.89L190.27 7.27L188.94 6.67L187.61 6.1L186.26 5.56L184.89 5.04L183.52 4.55L182.14 4.09L180.75 3.66L179.35 3.25L177.94 2.87L176.52 2.53L175.1 2.21L173.67 1.92L172.22 1.67L170.78 1.44L169.32 1.24L167.87 1.07L166.4 0.93L164.94 0.82L163.46 0.74L161.99 0.69L160.51 0.68L160.51 0.68L160.39 0.68L160.24 0.68L160.07 0.68Z" id="a1P0M9z0h"></path><path d="M90.76 84.2L90.73 83.84L90.7 83.48L90.66 83.13L90.64 82.79L90.61 82.46L90.58 82.13L90.56 81.82L90.53 81.51L90.5 81.22L90.48 80.92L90.45 80.65L90.43 80.37L90.41 80.11L90.39 79.86L90.36 79.62L90.34 79.37L90.32 79.15L90.3 78.93L90.29 78.72L90.26 78.52L90.25 78.32L90.24 78.14L90.21 77.96L90.2 77.79L90.19 77.63L90.18 77.48L90.16 77.34L90.15 77.2L90.14 77.08L90.13 76.97L90.12 76.85L90.11 76.76L90.11 76.67L90.1 76.58L90.09 76.51L90.09 76.45L90.08 76.39L90.08 76.35L89.99 75.12L89.91 73.9L89.87 72.68L89.85 71.47L89.86 70.25L89.89 69.05L89.95 67.85L90.03 66.65L90.14 65.45L90.26 64.27L90.41 63.08L90.59 61.9L90.8 60.73L91.02 59.57L91.27 58.4L91.55 57.25L91.84 56.1L92.16 54.97L92.51 53.83L92.88 52.71L93.27 51.6L93.69 50.49L94.13 49.39L94.59 48.3L95.07 47.22L95.59 46.15L96.11 45.08L96.66 44.02L97.24 42.98L97.84 41.95L98.46 40.93L99.11 39.92L99.77 38.92L100.46 37.93L101.17 36.96L101.91 35.99L102.66 35.04L103.44 34.1L104.24 33.17L105.05 32.26L105.89 31.37L106.75 30.49L107.61 29.64L108.5 28.8L109.39 27.99L110.31 27.19L111.23 26.42L112.17 25.67L113.12 24.94L114.09 24.24L115.06 23.55L116.05 22.89L117.05 22.24L118.06 21.62L119.09 21.02L120.12 20.44L121.17 19.89L122.22 19.36L123.29 18.85L124.37 18.36L125.45 17.89L126.55 17.45L127.66 17.04L128.77 16.64L129.9 16.27L131.03 15.92L132.17 15.59L133.32 15.29L134.48 15.01L135.64 14.75L136.82 14.52L137.99 14.31L139.19 14.13L140.38 13.97L141.57 13.83L142.78 13.72L143.99 13.64L145.21 13.57L146.43 13.54L147.66 13.52L147.77 13.52L147.92 13.52L148.09 13.52L148.29 13.52L148.53 13.52L148.78 13.52L149.07 13.52L149.37 13.52L149.69 13.52L150.03 13.52L150.39 13.52L150.76 13.52L151.14 13.52L151.54 13.52L151.95 13.52L152.37 13.52L152.79 13.52L153.22 13.52L153.65 13.52L154.08 13.52L154.52 13.52L154.94 13.52L155.37 13.52L155.8 13.52L156.22 13.52L156.62 13.52L157.02 13.52L157.41 13.52L157.78 13.52L158.14 13.52L158.48 13.52L158.8 13.52L159.1 13.52L159.38 13.52L159.64 13.52L159.87 13.52L160.07 13.52L160.24 13.52L160.39 13.52L160.51 13.52L161.73 13.54L162.96 13.57L164.17 13.64L165.39 13.72L166.59 13.83L167.79 13.97L168.98 14.13L170.17 14.31L171.35 14.52L172.52 14.75L173.69 15.01L174.84 15.29L175.99 15.59L177.14 15.92L178.27 16.27L179.39 16.64L180.51 17.04L181.62 17.45L182.71 17.89L183.8 18.36L184.87 18.85L185.94 19.36L187 19.89L188.04 20.44L189.08 21.02L190.1 21.62L191.12 22.24L192.12 22.89L193.1 23.55L194.08 24.24L195.05 24.94L196 25.67L196.93 26.42L197.86 27.19L198.77 27.99L199.67 28.8L200.55 29.64L201.42 30.49L202.27 31.37L203.11 32.26L203.93 33.17L204.73 34.1L205.51 35.04L206.26 35.99L207 36.96L207.7 37.93L208.4 38.92L209.06 39.92L209.7 40.93L210.32 41.95L210.92 42.98L211.5 44.02L212.05 45.08L212.59 46.15L213.1 47.22L213.58 48.3L214.04 49.39L214.48 50.49L214.9 51.6L215.29 52.71L215.66 53.83L216 54.97L216.32 56.1L216.62 57.25L216.9 58.4L217.15 59.57L217.37 60.73L217.57 61.9L217.75 63.08L217.91 64.27L218.04 65.45L218.14 66.65L218.22 67.85L218.28 69.05L218.31 70.25L218.32 71.47L218.3 72.68L218.25 73.9L218.19 75.12L218.09 76.35L218.08 76.49L218.07 76.66L218.05 76.85L218.03 77.08L218 77.32L217.98 77.6L217.95 77.9L217.92 78.23L217.9 78.59L217.86 78.97L217.83 79.37L217.79 79.8L217.75 80.27L217.71 80.75L217.67 81.26L217.62 81.8L217.57 82.36L217.52 82.95L217.46 83.57L217.41 84.21L217.35 84.88L217.29 85.57L217.22 86.3L217.16 87.05L217.1 87.82L217.02 88.62L216.95 89.45L216.87 90.3L216.8 91.17L216.72 92.08L216.64 93.01L216.56 93.97L216.47 94.95L216.38 95.96L216.3 97L216.2 98.06L216.1 99.15L216.01 100.26L215.91 101.4L215.81 102.57L203.07 100.77L103.88 86.8L103.88 86.8L90.83 84.96L90.79 84.57L90.76 84.2ZM195.4 112.67L195.51 112.68L195.64 112.7L195.8 112.72L195.97 112.75L196.17 112.77L196.4 112.81L196.63 112.84L196.89 112.87L197.16 112.92L197.44 112.95L197.73 113L198.04 113.04L198.35 113.08L198.67 113.12L199 113.17L199.32 113.22L199.65 113.27L199.97 113.31L200.3 113.36L200.62 113.4L200.95 113.45L201.26 113.49L201.56 113.53L201.85 113.57L202.14 113.62L202.4 113.65L202.66 113.69L202.9 113.72L203.12 113.75L203.32 113.78L203.5 113.81L203.65 113.83L203.78 113.85L203.89 113.86L203.97 113.87L204.02 113.88L204.03 113.88L203.53 114.21L202.9 114.64L202.12 115.15L201.22 115.75L200.21 116.43L199.08 117.18L197.85 118L196.52 118.88L195.1 119.83L193.61 120.83L192.03 121.87L190.39 122.96L188.69 124.1L186.94 125.26L185.15 126.45L183.32 127.68L181.45 128.92L179.57 130.17L177.67 131.43L175.77 132.7L173.86 133.98L171.96 135.24L170.07 136.5L168.21 137.73L166.38 138.95L164.58 140.15L162.83 141.32L161.14 142.45L159.49 143.54L157.92 144.59L156.42 145.58L155.01 146.53L153.68 147.41L152.44 148.23L151.32 148.98L150.3 149.66L149.41 150.26L148.64 150.78L147.99 151.2L147.5 151.53L147.28 151.67L147.06 151.8L146.84 151.94L146.62 152.06L146.39 152.19L146.17 152.3L145.94 152.42L145.7 152.53L145.47 152.63L145.24 152.73L145 152.83L144.77 152.91L144.52 153L144.29 153.08L144.04 153.15L143.8 153.23L143.56 153.29L143.32 153.35L143.07 153.4L142.82 153.45L142.57 153.5L142.32 153.54L142.07 153.58L141.82 153.61L141.57 153.63L141.32 153.65L141.07 153.67L140.82 153.68L140.57 153.69L140.31 153.69L140.06 153.68L139.8 153.68L139.55 153.66L139.29 153.64L139.04 153.62L138.79 153.58L138.54 153.55L138.28 153.51L138.03 153.46L137.77 153.41L137.52 153.36L137.27 153.3L137.02 153.23L136.77 153.16L136.53 153.09L136.29 153.01L136.04 152.93L135.8 152.84L135.57 152.75L135.33 152.65L135.1 152.55L134.87 152.45L134.64 152.33L134.42 152.22L134.19 152.1L133.97 151.98L133.76 151.85L133.54 151.72L133.33 151.58L133.12 151.44L132.92 151.3L132.71 151.15L132.51 151L132.31 150.84L132.12 150.68L131.92 150.51L131.74 150.35L131.55 150.18L131.37 150L131.19 149.82L131.02 149.63L130.84 149.45L130.67 149.25L130.51 149.06L130.34 148.86L130.19 148.66L130.03 148.45L129.88 148.25L129.74 148.03L129.59 147.82L129.42 147.55L129.21 147.23L128.97 146.87L128.7 146.45L128.4 145.98L128.07 145.47L127.71 144.91L127.31 144.3L126.88 143.64L126.42 142.93L125.93 142.17L125.41 141.37L124.86 140.51L124.27 139.6L123.65 138.65L123 137.65L122.32 136.6L121.61 135.5L120.87 134.35L120.09 133.15L119.28 131.9L118.44 130.61L117.57 129.27L116.67 127.87L115.74 126.43L114.76 124.94L113.77 123.4L112.74 121.81L111.68 120.17L110.59 118.48L109.46 116.75L108.31 114.97L107.12 113.13L105.9 111.25L104.65 109.32L103.36 107.34L102.05 105.31L100.71 103.23L99.33 101.1L97.92 98.93L101.78 99.47L105.56 100L109.27 100.53L112.91 101.04L116.47 101.55L119.97 102.04L123.39 102.52L126.73 102.99L130.01 103.45L133.21 103.9L136.33 104.35L139.39 104.77L142.37 105.2L145.27 105.6L148.11 106L150.87 106.39L153.56 106.77L156.18 107.14L158.72 107.5L161.19 107.85L163.59 108.18L165.91 108.51L168.16 108.83L170.34 109.14L172.44 109.43L174.47 109.72L176.44 110L178.32 110.26L180.13 110.52L181.87 110.76L183.54 111L185.14 111.22L186.66 111.44L188.1 111.64L189.48 111.83L190.78 112.02L192.01 112.19L193.17 112.35L194.25 112.5L195.26 112.65L195.26 112.65L195.27 112.65L195.32 112.66L195.4 112.67ZM201.8 260.25L201.43 261.93L201 263.57L200.52 265.19L199.97 266.78L199.37 268.35L198.71 269.88L198 271.38L197.23 272.85L196.42 274.29L195.55 275.69L194.64 277.04L193.68 278.37L192.67 279.66L191.62 280.91L190.52 282.11L189.38 283.28L188.2 284.4L186.98 285.48L185.72 286.51L184.42 287.5L183.09 288.44L181.72 289.34L180.32 290.18L178.88 290.96L177.41 291.71L175.91 292.39L174.38 293.03L172.83 293.61L171.24 294.13L169.64 294.59L168 295L166.34 295.35L164.67 295.64L162.97 295.86L161.25 296.02L159.51 296.12L157.76 296.15L157.69 296.15L157.61 296.15L157.51 296.15L157.39 296.15L157.26 296.15L157.12 296.15L156.95 296.15L156.78 296.15L156.59 296.15L156.4 296.15L156.19 296.15L155.99 296.15L155.77 296.15L155.54 296.15L155.3 296.15L155.07 296.15L154.82 296.15L154.58 296.15L154.33 296.15L154.08 296.15L153.84 296.15L153.59 296.15L153.34 296.15L153.1 296.15L152.86 296.15L152.63 296.15L152.4 296.15L152.18 296.15L151.97 296.15L151.76 296.15L151.57 296.15L151.38 296.15L151.21 296.15L151.05 296.15L150.9 296.15L150.77 296.15L150.65 296.15L150.55 296.15L150.47 296.15L150.41 296.15L148.65 296.12L146.92 296.02L145.19 295.86L143.49 295.64L141.82 295.35L140.17 295L138.53 294.59L136.92 294.13L135.34 293.61L133.78 293.03L132.25 292.39L130.75 291.71L129.29 290.96L127.85 290.18L126.44 289.34L125.07 288.44L123.74 287.5L122.44 286.51L121.19 285.48L119.97 284.4L118.78 283.28L117.64 282.11L116.54 280.91L115.49 279.66L114.49 278.37L113.53 277.04L112.61 275.69L111.75 274.29L110.94 272.85L110.17 271.38L109.46 269.88L108.8 268.35L108.2 266.78L107.65 265.19L107.16 263.57L106.73 261.93L106.36 260.25L106.05 258.56L105.8 256.83L105.61 255.08L105.55 254.32L105.47 253.41L105.38 252.37L105.28 251.18L105.16 249.86L105.04 248.4L104.89 246.8L104.74 245.06L104.58 243.17L104.41 241.15L104.21 238.99L104.01 236.69L103.81 234.26L103.58 231.68L103.34 228.96L103.09 226.11L102.84 223.11L102.56 219.97L102.28 216.7L101.98 213.28L101.67 209.73L101.35 206.04L101.02 202.21L100.67 198.23L100.31 194.13L99.94 189.88L99.56 185.48L99.17 180.95L98.76 176.29L98.35 171.48L97.91 166.53L97.47 161.45L97.02 156.23L96.56 150.86L96.08 145.35L95.59 139.71L95.08 133.93L94.56 128L94.04 121.95L93.5 115.75L94.63 117.48L95.73 119.18L96.81 120.84L97.86 122.46L98.88 124.05L99.88 125.59L100.86 127.1L101.81 128.56L102.73 129.98L103.63 131.37L104.5 132.72L105.35 134.03L106.17 135.3L106.97 136.53L107.74 137.72L108.49 138.88L109.21 139.98L109.91 141.06L110.58 142.1L111.22 143.09L111.84 144.05L112.44 144.97L113.01 145.85L113.56 146.68L114.07 147.49L114.56 148.25L115.04 148.97L115.48 149.65L115.89 150.3L116.29 150.9L116.66 151.47L117 152L117.32 152.49L117.61 152.94L117.87 153.35L118.12 153.72L118.33 154.05L118.52 154.34L118.68 154.6L118.82 154.81L119.11 155.25L119.4 155.67L119.7 156.09L120.01 156.5L120.32 156.9L120.64 157.3L120.98 157.69L121.32 158.07L121.66 158.45L122.01 158.81L122.37 159.18L122.73 159.53L123.1 159.87L123.47 160.2L123.86 160.53L124.24 160.85L124.64 161.17L125.04 161.47L125.45 161.77L125.87 162.05L126.28 162.33L126.71 162.6L127.14 162.87L127.57 163.13L128.01 163.37L128.45 163.61L128.91 163.84L129.36 164.06L129.82 164.27L130.29 164.48L130.75 164.67L131.23 164.85L131.71 165.03L132.19 165.19L132.67 165.35L133.17 165.5L133.66 165.63L134.16 165.76L134.66 165.88L135.17 166L135.3 166.02L135.43 166.05L135.57 166.08L135.69 166.1L135.82 166.12L135.96 166.15L136.09 166.17L136.22 166.19L136.35 166.21L136.49 166.23L136.62 166.25L136.75 166.27L136.88 166.29L137.02 166.3L137.14 166.33L137.28 166.34L137.41 166.35L137.54 166.38L137.67 166.39L137.8 166.4L137.94 166.41L138.07 166.43L138.2 166.44L138.33 166.45L138.47 166.46L138.59 166.47L138.73 166.48L138.86 166.49L138.99 166.5L139.12 166.5L139.25 166.51L139.39 166.52L139.52 166.52L139.65 166.53L139.78 166.53L139.91 166.53L140.04 166.53L140.17 166.53L140.3 166.54L140.44 166.54L140.81 166.53L141.19 166.53L141.56 166.51L141.93 166.5L142.31 166.47L142.68 166.44L143.05 166.4L143.42 166.36L143.79 166.32L144.16 166.26L144.53 166.2L144.89 166.14L145.27 166.08L145.63 166L145.99 165.92L146.36 165.84L146.72 165.75L147.08 165.65L147.44 165.55L147.8 165.45L148.16 165.33L148.52 165.22L148.87 165.1L149.22 164.97L149.57 164.83L149.92 164.7L150.27 164.55L150.62 164.4L150.96 164.25L151.3 164.1L151.64 163.93L151.99 163.76L152.32 163.58L152.66 163.4L152.99 163.22L153.32 163.03L153.65 162.83L153.98 162.63L154.3 162.43L154.62 162.22L154.95 162L155.34 161.74L155.78 161.45L156.29 161.11L156.85 160.73L157.48 160.32L158.16 159.86L158.9 159.37L159.71 158.83L160.57 158.26L161.49 157.65L162.47 156.99L163.51 156.3L164.61 155.57L165.77 154.8L166.99 153.98L168.27 153.13L169.6 152.24L171 151.31L172.46 150.34L173.97 149.33L175.54 148.28L177.18 147.2L178.87 146.07L180.63 144.9L182.44 143.69L184.32 142.45L186.24 141.15L188.24 139.83L190.29 138.47L192.4 137.06L194.57 135.61L196.8 134.13L199.09 132.6L201.44 131.04L203.85 129.44L206.31 127.8L208.84 126.11L211.42 124.39L214.07 122.63L213.61 127.88L213.16 133.03L212.72 138.08L212.3 143.03L211.87 147.88L211.46 152.63L211.05 157.28L210.66 161.84L210.27 166.29L209.89 170.65L209.52 174.9L209.16 179.05L208.81 183.11L208.46 187.07L208.12 190.93L207.8 194.68L207.48 198.35L207.17 201.91L206.87 205.36L206.58 208.73L206.3 211.99L206.02 215.15L205.75 218.21L205.5 221.18L205.25 224.04L205.01 226.81L204.77 229.47L204.55 232.04L204.34 234.51L204.13 236.87L203.93 239.14L203.75 241.31L203.57 243.38L203.4 245.35L203.23 247.22L203.07 248.99L202.93 250.66L202.8 252.24L202.67 253.71L202.55 255.08L202.55 255.08L202.36 256.83L202.12 258.56L201.8 260.25ZM160.07 0.68L159.87 0.68L159.64 0.68L159.38 0.68L159.1 0.68L158.8 0.68L158.48 0.68L158.14 0.68L157.78 0.68L157.41 0.68L157.02 0.68L156.62 0.68L156.22 0.68L155.8 0.68L155.37 0.68L154.94 0.68L154.52 0.68L154.08 0.68L153.65 0.68L153.22 0.68L152.79 0.68L152.37 0.68L151.95 0.68L151.54 0.68L151.14 0.68L150.76 0.68L150.39 0.68L150.03 0.68L149.69 0.68L149.37 0.68L149.07 0.68L148.78 0.68L148.53 0.68L148.29 0.68L148.09 0.68L147.92 0.68L147.77 0.68L147.66 0.68L146.18 0.69L144.7 0.74L143.23 0.82L141.76 0.93L140.29 1.07L138.84 1.24L137.39 1.44L135.94 1.67L134.5 1.92L133.07 2.21L131.64 2.53L130.22 2.87L128.81 3.25L127.41 3.66L126.02 4.09L124.64 4.55L123.27 5.04L121.91 5.56L120.56 6.1L119.22 6.67L117.89 7.27L116.58 7.89L115.27 8.55L113.99 9.23L112.71 9.94L111.46 10.67L110.21 11.43L108.98 12.22L107.76 13.02L106.57 13.86L105.39 14.72L104.23 15.61L103.08 16.52L101.95 17.46L100.84 18.42L99.75 19.4L98.68 20.41L97.63 21.44L96.59 22.5L95.59 23.58L94.59 24.68L93.63 25.8L92.69 26.94L91.78 28.09L90.89 29.27L90.04 30.46L89.2 31.67L88.39 32.89L87.61 34.12L86.85 35.37L86.12 36.64L85.41 37.92L84.74 39.21L84.09 40.52L83.47 41.84L82.88 43.17L82.31 44.51L81.77 45.86L81.26 47.22L80.78 48.6L80.32 49.98L79.9 51.37L79.5 52.77L79.13 54.18L78.79 55.6L78.48 57.02L78.2 58.45L77.94 59.9L77.72 61.34L77.53 62.78L77.36 64.24L77.24 65.7L77.13 67.15L77.06 68.62L77.01 70.09L77 71.56L77.02 73.03L77.07 74.5L77.15 75.98L77.26 77.45L77.4 79.02L77.57 81.05L77.79 83.48L78.04 86.32L78.31 89.53L78.62 93.1L78.96 97L79.33 101.2L79.71 105.67L80.13 110.41L80.56 115.38L81.01 120.57L81.48 125.94L81.96 131.48L82.46 137.15L82.96 142.95L83.47 148.84L83.99 154.8L84.51 160.8L85.04 166.83L85.56 172.85L86.09 178.86L86.6 184.82L87.11 190.71L87.62 196.51L88.11 202.18L88.59 207.72L89.06 213.09L89.51 218.27L89.94 223.25L90.36 227.98L90.75 232.46L91.11 236.66L91.45 240.56L91.76 244.12L92.04 247.33L92.29 250.18L92.5 252.61L92.67 254.63L92.81 256.21L93.05 258.45L93.37 260.66L93.76 262.84L94.24 264.99L94.8 267.11L95.43 269.19L96.14 271.24L96.91 273.25L97.75 275.22L98.67 277.15L99.65 279.04L100.7 280.88L101.81 282.68L102.99 284.43L104.22 286.14L105.51 287.79L106.87 289.39L108.28 290.94L109.74 292.44L111.26 293.89L112.84 295.27L114.45 296.6L116.12 297.87L117.84 299.09L119.6 300.23L121.4 301.31L123.25 302.33L125.14 303.29L127.07 304.16L129.03 304.99L131.03 305.73L133.07 306.4L135.14 306.99L137.24 307.52L139.37 307.96L141.52 308.34L143.71 308.62L145.92 308.83L148.15 308.96L150.41 309L150.47 309L150.55 309L150.65 309L150.77 309L150.9 309L151.05 309L151.21 309L151.38 309L151.57 309L151.76 309L151.97 309L152.18 309L152.4 309L152.63 309L152.86 309L153.1 309L153.34 309L153.59 309L153.84 309L154.08 309L154.33 309L154.58 309L154.82 309L155.07 309L155.3 309L155.54 309L155.77 309L155.99 309L156.19 309L156.4 309L156.59 309L156.78 309L156.95 309L157.12 309L157.26 309L157.39 309L157.51 309L157.61 309L157.69 309L157.76 309L160.02 308.96L162.24 308.83L164.46 308.62L166.64 308.34L168.8 307.96L170.93 307.52L173.03 306.99L175.1 306.4L177.14 305.73L179.14 304.99L181.1 304.16L183.03 303.29L184.92 302.33L186.77 301.31L188.57 300.23L190.33 299.09L192.04 297.87L193.72 296.6L195.34 295.27L196.9 293.89L198.42 292.44L199.89 290.94L201.3 289.39L202.65 287.79L203.95 286.14L205.18 284.43L206.36 282.68L207.47 280.88L208.52 279.04L209.5 277.15L210.42 275.22L211.26 273.25L212.03 271.24L212.74 269.19L213.37 267.11L213.92 264.99L214.4 262.84L214.8 260.66L215.12 258.45L215.36 256.21L215.5 254.63L215.67 252.61L215.88 250.18L216.13 247.33L216.41 244.12L216.72 240.56L217.05 236.66L217.42 232.46L217.81 227.98L218.22 223.25L218.65 218.27L219.11 213.09L219.57 207.72L220.05 202.18L220.55 196.51L221.05 190.71L221.57 184.82L222.08 178.86L222.6 172.85L223.13 166.83L223.65 160.8L224.17 154.8L224.7 148.84L225.2 142.95L225.71 137.15L226.2 131.48L226.69 125.94L227.15 120.57L227.6 115.38L228.04 110.41L228.45 105.67L228.84 101.2L229.2 97L229.54 93.1L229.85 89.53L230.13 86.32L230.37 83.48L230.59 81.05L230.77 79.02L230.9 77.45L231.01 75.98L231.1 74.5L231.15 73.03L231.16 71.56L231.15 70.09L231.11 68.62L231.03 67.15L230.93 65.7L230.8 64.24L230.63 62.78L230.44 61.34L230.22 59.9L229.97 58.45L229.68 57.02L229.37 55.6L229.03 54.18L228.67 52.77L228.27 51.37L227.84 49.98L227.39 48.6L226.9 47.22L226.39 45.86L225.85 44.51L225.29 43.17L224.7 41.84L224.07 40.52L223.42 39.21L222.75 37.92L222.05 36.64L221.32 35.37L220.56 34.12L219.77 32.89L218.97 31.67L218.13 30.46L217.27 29.27L216.38 28.09L215.47 26.94L214.53 25.8L213.57 24.68L212.58 23.58L211.57 22.5L210.54 21.44L209.49 20.41L208.42 19.4L207.32 18.42L206.21 17.46L205.08 16.52L203.94 15.61L202.77 14.72L201.6 13.86L200.4 13.02L199.18 12.22L197.95 11.43L196.71 10.67L195.45 9.94L194.17 9.23L192.89 8.55L191.59 7.89L190.27 7.27L188.94 6.67L187.61 6.1L186.26 5.56L184.89 5.04L183.52 4.55L182.14 4.09L180.75 3.66L179.35 3.25L177.94 2.87L176.52 2.53L175.1 2.21L173.67 1.92L172.22 1.67L170.78 1.44L169.32 1.24L167.87 1.07L166.4 0.93L164.94 0.82L163.46 0.74L161.99 0.69L160.51 0.68L160.51 0.68L160.39 0.68L160.24 0.68L160.07 0.68Z" id="bc0T2DzGg"></path><path d="M202.17 258.35L105.99 258.35L202.17 258.35L202.17 258.35Z" id="a4hzxdsOh7"></path><path d="M202.17 258.35L105.99 258.35L202.17 258.35L202.17 258.35Z" id="jjyaa0xff"></path><path d="M202.17 258.35L105.99 258.35L202.17 258.35L202.17 258.35Z" id="a2lmmkXAzo"></path><path d="M202.17 258.35L105.99 258.35L202.17 258.35L202.17 258.35Z" id="a7aS5wC6"></path><path d="M168.67 150.98L211.52 150.98" id="keU9tYJyI"></path><path d="M168.67 150.98L211.52 150.98" id="doQ0yHaCt"></path><path d="M168.67 150.98L211.52 150.98" id="bCzINz0eB"></path><path d="M168.67 150.98L211.52 150.98" id="a5gfLGXus"></path><path d="M102.7 222.56L205.46 222.56" id="bchIVOyh6"></path><path d="M102.7 222.56L205.46 222.56" id="i3eK5sptvV"></path><path d="M102.7 222.56L205.46 222.56" id="d1rqYcF4Ij"></path><path d="M102.7 222.56L205.46 222.56" id="b1HZjV5rYB"></path><path d="M99.54 186.76L208.62 186.76" id="c6nmelR1pb"></path><path d="M99.54 186.76L208.62 186.76" id="a3a8dT9w9I"></path><path d="M99.54 186.76L208.62 186.76" id="bvpu8mDvm"></path><path d="M99.54 186.76L208.62 186.76" id="c5LineZjRM"></path><path d="M94.59 150.98L119.59 150.98" id="b1YMPU6gxB"></path><path d="M94.59 150.98L119.59 150.98" id="a3VSEJPjaG"></path><path d="M94.59 150.98L119.59 150.98" id="f6OJBsgC6"></path><path d="M94.59 150.98L119.59 150.98" id="g1wK2Z0IBZ"></path></defs><g><g><g><use xlink:href="#e1kTZSMX2R" opacity="1" fill="#000000" fill-opacity="1"></use><g><use xlink:href="#e1kTZSMX2R" opacity="1" fill-opacity="0" stroke="#000000" stroke-width="1" stroke-opacity="0"></use></g></g><g><use xlink:href="#a10ubJPxlH" opacity="1" fill="#000000" fill-opacity="0"></use><g><use xlink:href="#a10ubJPxlH" opacity="1" fill-opacity="0" stroke="#000000" stroke-width="1" stroke-opacity="0"></use></g></g><g><use xlink:href="#a1P0M9z0h" opacity="1" fill="#000000" fill-opacity="0"></use><g><use xlink:href="#a1P0M9z0h" opacity="1" fill-opacity="0" stroke="#000000" stroke-width="1" stroke-opacity="0"></use></g></g><g><use xlink:href="#bc0T2DzGg" opacity="1" fill="#000000" fill-opacity="0"></use><g><use xlink:href="#bc0T2DzGg" opacity="1" fill-opacity="0" stroke="#000000" stroke-width="0" stroke-opacity="1"></use></g></g><g><use xlink:href="#a4hzxdsOh7" opacity="1" fill="#000000" fill-opacity="0"></use><g><use xlink:href="#a4hzxdsOh7" opacity="1" fill-opacity="0" stroke="#000000" stroke-width="1" stroke-opacity="0"></use></g></g><g><use xlink:href="#jjyaa0xff" opacity="1" fill="#000000" fill-opacity="0"></use><g><use xlink:href="#jjyaa0xff" opacity="1" fill-opacity="0" stroke="#000000" stroke-width="1" stroke-opacity="0"></use></g></g><g><use xlink:href="#a2lmmkXAzo" opacity="1" fill="#000000" fill-opacity="0"></use><g><use xlink:href="#a2lmmkXAzo" opacity="1" fill-opacity="0" stroke="#000000" stroke-width="1" stroke-opacity="0"></use></g></g><g><use xlink:href="#a7aS5wC6" opacity="1" fill="#000000" fill-opacity="0"></use><g><use xlink:href="#a7aS5wC6" opacity="1" fill-opacity="0" stroke="#000000" stroke-width="5" stroke-opacity="1"></use></g></g><g><use xlink:href="#keU9tYJyI" opacity="1" fill="#000000" fill-opacity="0"></use><g><use xlink:href="#keU9tYJyI" opacity="1" fill-opacity="0" stroke="#000000" stroke-width="1" stroke-opacity="0"></use></g></g><g><use xlink:href="#doQ0yHaCt" opacity="1" fill="#000000" fill-opacity="0"></use><g><use xlink:href="#doQ0yHaCt" opacity="1" fill-opacity="0" stroke="#000000" stroke-width="1" stroke-opacity="0"></use></g></g><g><use xlink:href="#bCzINz0eB" opacity="1" fill="#000000" fill-opacity="0"></use><g><use xlink:href="#bCzINz0eB" opacity="1" fill-opacity="0" stroke="#000000" stroke-width="1" stroke-opacity="0"></use></g></g><g><use xlink:href="#a5gfLGXus" opacity="1" fill="#000000" fill-opacity="0"></use><g><use xlink:href="#a5gfLGXus" opacity="1" fill-opacity="0" stroke="#000000" stroke-width="5" stroke-opacity="1"></use></g></g><g><use xlink:href="#bchIVOyh6" opacity="1" fill="#000000" fill-opacity="0"></use><g><use xlink:href="#bchIVOyh6" opacity="1" fill-opacity="0" stroke="#000000" stroke-width="1" stroke-opacity="0"></use></g></g><g><use xlink:href="#i3eK5sptvV" opacity="1" fill="#000000" fill-opacity="0"></use><g><use xlink:href="#i3eK5sptvV" opacity="1" fill-opacity="0" stroke="#000000" stroke-width="1" stroke-opacity="0"></use></g></g><g><use xlink:href="#d1rqYcF4Ij" opacity="1" fill="#000000" fill-opacity="0"></use><g><use xlink:href="#d1rqYcF4Ij" opacity="1" fill-opacity="0" stroke="#000000" stroke-width="1" stroke-opacity="0"></use></g></g><g><use xlink:href="#b1HZjV5rYB" opacity="1" fill="#000000" fill-opacity="0"></use><g><use xlink:href="#b1HZjV5rYB" opacity="1" fill-opacity="0" stroke="#000000" stroke-width="5" stroke-opacity="1"></use></g></g><g><use xlink:href="#c6nmelR1pb" opacity="1" fill="#000000" fill-opacity="0"></use><g><use xlink:href="#c6nmelR1pb" opacity="1" fill-opacity="0" stroke="#000000" stroke-width="1" stroke-opacity="0"></use></g></g><g><use xlink:href="#a3a8dT9w9I" opacity="1" fill="#000000" fill-opacity="0"></use><g><use xlink:href="#a3a8dT9w9I" opacity="1" fill-opacity="0" stroke="#000000" stroke-width="1" stroke-opacity="0"></use></g></g><g><use xlink:href="#bvpu8mDvm" opacity="1" fill="#000000" fill-opacity="0"></use><g><use xlink:href="#bvpu8mDvm" opacity="1" fill-opacity="0" stroke="#000000" stroke-width="1" stroke-opacity="0"></use></g></g><g><use xlink:href="#c5LineZjRM" opacity="1" fill="#000000" fill-opacity="0"></use><g><use xlink:href="#c5LineZjRM" opacity="1" fill-opacity="0" stroke="#000000" stroke-width="5" stroke-opacity="1"></use></g></g><g><use xlink:href="#b1YMPU6gxB" opacity="1" fill="#000000" fill-opacity="0"></use><g><use xlink:href="#b1YMPU6gxB" opacity="1" fill-opacity="0" stroke="#000000" stroke-width="1" stroke-opacity="0"></use></g></g><g><use xlink:href="#a3VSEJPjaG" opacity="1" fill="#000000" fill-opacity="0"></use><g><use xlink:href="#a3VSEJPjaG" opacity="1" fill-opacity="0" stroke="#000000" stroke-width="1" stroke-opacity="0"></use></g></g><g><use xlink:href="#f6OJBsgC6" opacity="1" fill="#000000" fill-opacity="0"></use><g><use xlink:href="#f6OJBsgC6" opacity="1" fill-opacity="0" stroke="#000000" stroke-width="1" stroke-opacity="0"></use></g></g><g><use xlink:href="#g1wK2Z0IBZ" opacity="1" fill="#000000" fill-opacity="0"></use><g><use xlink:href="#g1wK2Z0IBZ" opacity="1" fill-opacity="0" stroke="#000000" stroke-width="5" stroke-opacity="1"></use></g></g></g></g></svg>