<?xml version="1.0" encoding="UTF-8" standalone="no"?>
<!DOCTYPE svg PUBLIC "-//W3C//DTD SVG 1.1//EN" "http://www.w3.org/Graphics/SVG/1.1/DTD/svg11.dtd">
<svg version="1.1" xmlns="http://www.w3.org/2000/svg" xmlns:xlink="http://www.w3.org/1999/xlink" preserveAspectRatio="xMidYMid meet" viewBox="0 0 412 309" width="412" height="309"><defs><path d="M352.96 292.6C288.58 292.6 230.09 158.72 218.02 73.02C261.71 133.42 343.61 252.63 371.01 292.6C367.4 292.6 356.57 292.6 352.96 292.6ZM107.83 292.6C155.37 257.26 191.46 173.93 207.13 106.64C222.79 173.93 258.89 257.26 306.43 292.6C266.71 292.6 147.55 292.6 107.83 292.6ZM43.25 292.6C70.64 252.63 152.55 133.42 196.23 73.02C184.17 158.72 125.67 292.6 61.29 292.6C57.69 292.6 46.86 292.6 43.25 292.6ZM398.37 277.96C397.38 278.94 389.5 286.82 388.51 287.81C362.6 249.97 256.88 95.91 217.86 43.81C220.05 40.89 237.54 17.58 239.73 14.66C242.57 10.87 241.8 5.5 238.01 2.66C234.22 -0.18 228.84 0.58 226 4.37C224.74 6.05 218.45 14.44 207.13 29.54C195.8 14.44 189.51 6.05 188.26 4.37C185.42 0.57 180.03 -0.2 176.25 2.66C172.46 5.5 171.68 10.88 174.53 14.66C176.72 17.58 194.21 40.89 196.4 43.81C157.38 95.91 51.66 249.97 25.74 287.81C24.76 286.82 16.88 278.94 15.9 277.96C12.54 274.6 7.11 274.6 3.76 277.96C0.4 281.31 0.4 286.74 3.76 290.09C5.47 291.8 19.2 305.53 20.92 307.24C22.59 308.92 24.78 309.75 26.98 309.75C63.01 309.75 351.24 309.75 387.27 309.75C389.47 309.75 391.67 308.92 393.34 307.24C395.06 305.53 408.78 291.8 410.5 290.09C413.85 286.74 413.85 281.31 410.5 277.96C407.14 274.6 401.71 274.6 398.37 277.96Z" id="appGKrbSn"></path></defs><g><g><g><use xlink:href="#appGKrbSn" opacity="1" fill="#000000" fill-opacity="1"></use><g><use xlink:href="#appGKrbSn" opacity="1" fill-opacity="0" stroke="#000000" stroke-width="0" stroke-opacity="1"></use></g></g></g></g></svg>